<svg width="284" height="296" viewBox="0 0 284 296" fill="none" xmlns="http://www.w3.org/2000/svg">
<path d="M185.698 0L97.8737 92.887H118.538V166.371C121.328 167.506 124.014 168.745 126.597 170.293H163.793C181.048 170.293 193.24 175.556 199.956 186.187C201.299 188.251 202.229 190.212 202.953 192.276L209.772 191.038L238.392 176.176C243.455 173.802 248.311 172.047 252.857 171.015V92.887H273.522L185.698 0ZM144.162 108.368V98.0474C144.162 89.4812 151.085 82.5662 159.661 82.5662C168.236 82.5662 175.159 89.4812 175.159 98.0474V108.368C175.159 116.831 168.236 123.849 159.661 123.849C151.085 123.849 144.162 116.831 144.162 108.368ZM158.421 163.275C157.387 164.513 155.941 165.132 154.494 165.132C153.255 165.132 152.118 164.72 151.085 163.894C148.915 162.036 148.708 158.734 150.568 156.566L212.562 84.3208C214.421 82.1534 217.728 81.947 219.897 83.8047C222.067 85.6625 222.274 88.8619 220.414 91.0293L158.421 163.275ZM226.82 149.651C226.82 158.114 219.897 165.132 211.322 165.132C202.746 165.132 195.823 158.114 195.823 149.651V139.331C195.823 130.764 202.746 123.849 211.322 123.849C219.897 123.849 226.82 130.764 226.82 139.331V149.651Z" fill="#10A2FF"/>
<path d="M164.827 98.0474V108.368C164.827 111.155 162.554 113.529 159.661 113.529C156.768 113.529 154.494 111.155 154.494 108.368V98.0474C154.494 95.1576 156.768 92.887 159.661 92.887C162.554 92.887 164.827 95.1576 164.827 98.0474Z" fill="#10A2FF"/>
<path d="M216.488 139.331V149.651C216.488 152.438 214.215 154.812 211.322 154.812C208.429 154.812 206.156 152.438 206.156 149.651V139.331C206.156 136.441 208.429 134.17 211.322 134.17C214.215 134.17 216.488 136.441 216.488 139.331Z" fill="#10A2FF"/>
<path d="M282.098 192.792L228.473 224.271L173.299 239.855C166.996 241.609 160.487 242.538 153.978 242.538H102.833C96.5305 242.538 88.7814 245.015 83.5119 248.937L43.5262 208.893L61.5043 190.934C72.0431 180.407 87.6448 174.215 102.73 172.667C108.206 173.389 113.579 175.144 118.538 177.621C119.881 178.24 121.225 178.962 122.464 179.788C123.188 180.304 124.118 180.614 124.944 180.614H163.793C177.225 180.614 186.524 184.329 191.277 191.76C192.827 194.134 193.757 196.611 194.274 198.881V199.088C194.274 199.088 194.274 199.294 194.377 199.397C194.48 200.017 194.583 200.636 194.687 201.255H123.808C120.915 201.255 118.642 203.526 118.642 206.416C118.642 209.305 120.915 211.576 123.808 211.576H200.163C203.056 211.576 205.329 209.202 205.329 206.416C205.329 205.59 205.329 204.145 205.122 202.494L212.355 201.152C212.355 201.152 213.285 200.842 213.801 200.636L243.042 185.464C246.451 183.813 249.758 182.575 252.857 181.749C261.64 179.066 269.286 179.066 274.452 181.852C278.171 183.916 280.754 187.632 282.098 192.792Z" fill="#10A2FF"/>
<path d="M71.7332 251.621L41.873 281.448L2.50718 242.126C-0.0758796 239.545 -0.0758796 235.417 2.50718 232.94L23.1717 212.402C25.7547 209.821 29.8876 209.821 32.3673 212.402L65.1205 245.222L65.3272 245.428L71.6299 251.621H71.7332Z" fill="#10A2FF"/>
<path d="M81.5488 270.714L60.8843 291.356C58.4046 293.833 54.2717 293.833 51.792 291.356L41.7697 281.448L71.6299 251.621L81.5488 261.529C84.0285 264.109 84.0285 268.134 81.5488 270.714Z" fill="#10A2FF"/>
<path d="M56.4415 295.897V296L41.873 281.448L56.4415 295.897Z" fill="#10A2FF"/>
<path d="M242.525 0V46.0307L221.861 24.2538V0H242.525Z" fill="#10A2FF"/>
<path d="M160.694 283.821H149.328C146.435 283.821 144.162 281.551 144.162 278.661C144.162 275.771 146.435 273.501 149.328 273.501H160.694C202.229 273.501 242.835 259.258 275.278 233.353C277.551 231.598 280.754 231.908 282.511 234.179C284.267 236.449 283.957 239.649 281.684 241.403C247.485 268.753 204.502 283.821 160.59 283.821H160.694Z" fill="#10A2FF"/>
<path d="M128.664 283.821H127.631C124.738 283.821 122.464 281.551 122.464 278.661C122.464 275.771 124.738 273.501 127.631 273.501H128.664C131.557 273.501 133.83 275.771 133.83 278.661C133.83 281.551 131.557 283.821 128.664 283.821Z" fill="#10A2FF"/>
</svg>
