<svg width="50" height="50" viewBox="0 0 50 50" fill="none" xmlns="http://www.w3.org/2000/svg">
<path d="M32.8948 2.63158C32.8948 1.18421 31.7105 0 30.2632 0H19.7369C18.2895 0 17.1053 1.18421 17.1053 2.63158V5.26316H32.8948V2.63158Z" fill="#10A2FF"/>
<path d="M23.6842 19.7368H21.0526V22.3684H23.6842V19.7368Z" fill="#10A2FF"/>
<path d="M28.9474 19.7368H26.3158V22.3684H28.9474V19.7368Z" fill="#10A2FF"/>
<path d="M23.6842 25H21.0526V27.6316H23.6842V25Z" fill="#10A2FF"/>
<path d="M28.9474 42.1052H26.3158V50H28.9474V42.1052Z" fill="#10A2FF"/>
<path d="M23.6842 42.1052H21.0526V50H23.6842V42.1052Z" fill="#10A2FF"/>
<path d="M28.9474 25H26.3158V27.6316H28.9474V25Z" fill="#10A2FF"/>
<path d="M32.8947 7.89478H17.1053C15.6579 7.89478 14.4737 9.07899 14.4737 10.5264V50H18.4211V40.7895C18.4211 40.0658 19.0132 39.4737 19.7369 39.4737H30.2632C30.9869 39.4737 31.579 40.0658 31.579 40.7895V50H35.5263V10.5264C35.5263 9.07899 34.3421 7.89478 32.8947 7.89478ZM31.579 34.2106C31.579 34.9342 30.9869 35.5264 30.2632 35.5264H19.7369C19.0132 35.5264 18.4211 34.9342 18.4211 34.2106V13.1579C18.4211 12.4342 19.0132 11.8421 19.7369 11.8421H30.2632C30.9869 11.8421 31.579 12.4342 31.579 13.1579V34.2106Z" fill="#10A2FF"/>
<path d="M28.9474 30.2632H26.3158V32.8948H28.9474V30.2632Z" fill="#10A2FF"/>
<path d="M23.6842 14.4736H21.0526V17.1052H23.6842V14.4736Z" fill="#10A2FF"/>
<path d="M23.6842 30.2632H21.0526V32.8948H23.6842V30.2632Z" fill="#10A2FF"/>
<path d="M28.9474 14.4736H26.3158V17.1052H28.9474V14.4736Z" fill="#10A2FF"/>
<path d="M50 39.4736H44.7368V42.1052H50V39.4736Z" fill="#10A2FF"/>
<path d="M50 18.4211H44.7368V21.0527H50V18.4211Z" fill="#10A2FF"/>
<path d="M50 28.9473H44.7368V31.5788H50V28.9473Z" fill="#10A2FF"/>
<path d="M47.3684 10.5264H38.1579V50H47.3684C48.8158 50 50 48.8158 50 47.3685V44.7369H43.4211C42.6974 44.7369 42.1053 44.1448 42.1053 43.4211V38.1579C42.1053 37.4343 42.6974 36.8422 43.4211 36.8422H50V34.2106H43.4211C42.6974 34.2106 42.1053 33.6185 42.1053 32.8948V27.6316C42.1053 26.9079 42.6974 26.3158 43.4211 26.3158H50V23.6843H43.4211C42.6974 23.6843 42.1053 23.0922 42.1053 22.3685V17.1053C42.1053 16.3816 42.6974 15.7895 43.4211 15.7895H50V13.1579C50 11.7106 48.8158 10.5264 47.3684 10.5264Z" fill="#10A2FF"/>
<path d="M5.26316 28.9473H0V31.5788H5.26316V28.9473Z" fill="#10A2FF"/>
<path d="M0 13.1579V15.7895H6.57895C7.30263 15.7895 7.89474 16.3816 7.89474 17.1053V22.3685C7.89474 23.0922 7.30263 23.6843 6.57895 23.6843H0V26.3158H6.57895C7.30263 26.3158 7.89474 26.9079 7.89474 27.6316V32.8948C7.89474 33.6185 7.30263 34.2106 6.57895 34.2106H0V36.8422H6.57895C7.30263 36.8422 7.89474 37.4343 7.89474 38.1579V43.4211C7.89474 44.1448 7.30263 44.7369 6.57895 44.7369H0V47.3685C0 48.8158 1.18421 50 2.63158 50H11.8421V10.5264H2.63158C1.18421 10.5264 0 11.7106 0 13.1579Z" fill="#10A2FF"/>
<path d="M5.26316 39.4736H0V42.1052H5.26316V39.4736Z" fill="#10A2FF"/>
<path d="M5.26316 18.4211H0V21.0527H5.26316V18.4211Z" fill="#10A2FF"/>
</svg>
