<?xml version="1.0" encoding="UTF-8"?>
<svg xmlns="http://www.w3.org/2000/svg" version="1.1" viewBox="0 0 100 100">
  <defs>
    <style>
      .cls-1 {
        fill: #0165ba;
      }

      .cls-1, .cls-2, .cls-3 {
        stroke-width: 0px;
      }

      .cls-2 {
        fill: #0165ba;
      }

      .cls-3 {
        fill: #000;
      }

      .cls-4 {
        display: none;
      }
    </style>
  </defs>
  <g id="Ebene_1" data-name="Ebene 1" class="cls-4">
    <path class="cls-1" d="M63.5,18.6h-27c-3.1,0-5.7,2.5-5.7,5.7v51.5c0,3.1,2.5,5.7,5.7,5.7h27c3.1,0,5.7-2.5,5.7-5.7V24.2c0-3.1-2.5-5.7-5.7-5.7ZM50,80.3c-1.7,0-3.1-1.4-3.1-3.1s1.4-3.1,3.1-3.1,3.1,1.4,3.1,3.1-1.4,3.1-3.1,3.1ZM64.7,70.3c0,1.5-1.2,2.8-2.7,2.8h-24c-1.5,0-2.8-1.2-2.8-2.8V25.5c0-1.5,1.3-2.8,2.8-2.8h24c1.5,0,2.7,1.2,2.7,2.8v44.7Z"/>
  </g>
  <g id="Ebene_20" data-name="Ebene 20" class="cls-4">
    <g>
      <g>
        <g>
          <path class="cls-2" d="M50.6,53.7c6.6,0,11.9-5.3,11.9-11.9s-5.3-11.9-11.9-11.9-11.9,5.3-11.9,11.9,5.3,11.9,11.9,11.9Z"/>
          <path class="cls-2" d="M64.7,55.6c-3.6,3.7-8.6,5.9-14.1,5.9s-10.5-2.3-14.1-5.9c-3.5,3.6-5.7,8.5-5.7,13.9v2c0,5.5,4.4,9.9,9.9,9.9h19.8c5.5,0,9.9-4.4,9.9-9.9v-2c0-5.4-2.2-10.3-5.7-13.9Z"/>
        </g>
        <path class="cls-2" d="M80.6,30.5c0,6.6-5.3,11.9-11.9,11.9s-2.3-.2-3.4-.5h0c0-5.9-3.4-10.9-8.3-13.3.9-5.6,5.8-10,11.7-10s11.9,5.3,11.9,11.9Z"/>
        <g>
          <path class="cls-2" d="M43.1,29.1c-4.3,2.5-7.2,7.1-7.3,12.4-1.4.6-2.9.9-4.5.9-6.6,0-11.9-5.3-11.9-11.9s5.3-11.9,11.9-11.9,11.1,4.6,11.8,10.5Z"/>
          <path class="cls-2" d="M34.4,53.7c-4.2,4.3-6.5,9.9-6.5,15.8v.6h-6.5c-5.5,0-9.9-4.4-9.9-9.9v-2c0-5.4,2.2-10.3,5.7-13.9,3.6,3.7,8.6,5.9,14.1,5.9s4.5-.4,6.6-1.1c.7,1.1-3.4,4.5-3.4,4.5Z"/>
          <path class="cls-2" d="M88.5,58.2v2c0,5.5-4.4,9.9-9.9,9.9h-5.4v-.6c0-5.9-2.3-11.6-6.5-15.8,0,0-4.2-3.2-3.6-4.2h0c1.8.5,3.7.8,5.6.8,5.5,0,10.5-2.3,14.1-5.9,3.5,3.6,5.7,8.5,5.7,13.9Z"/>
        </g>
      </g>
      <g>
        <g>
          <path class="cls-1" d="M50.6,53.7c6.6,0,11.9-5.3,11.9-11.9s-5.3-11.9-11.9-11.9-11.9,5.3-11.9,11.9,5.3,11.9,11.9,11.9Z"/>
          <path class="cls-1" d="M64.7,55.6c-3.6,3.7-8.6,5.9-14.1,5.9s-10.5-2.3-14.1-5.9c-3.5,3.6-5.7,8.5-5.7,13.9v2c0,5.5,4.4,9.9,9.9,9.9h19.8c5.5,0,9.9-4.4,9.9-9.9v-2c0-5.4-2.2-10.3-5.7-13.9Z"/>
        </g>
        <path class="cls-1" d="M80.6,30.5c0,6.6-5.3,11.9-11.9,11.9s-2.3-.2-3.4-.5h0c0-5.9-3.4-10.9-8.3-13.3.9-5.6,5.8-10,11.7-10s11.9,5.3,11.9,11.9Z"/>
        <g>
          <path class="cls-1" d="M43.1,29.1c-4.3,2.5-7.2,7.1-7.3,12.4-1.4.6-2.9.9-4.5.9-6.6,0-11.9-5.3-11.9-11.9s5.3-11.9,11.9-11.9,11.1,4.6,11.8,10.5Z"/>
          <path class="cls-1" d="M34.4,53.7c-4.2,4.3-6.5,9.9-6.5,15.8v.6h-6.5c-5.5,0-9.9-4.4-9.9-9.9v-2c0-5.4,2.2-10.3,5.7-13.9,3.6,3.7,8.6,5.9,14.1,5.9s4.5-.4,6.6-1.1c.7,1.1-3.4,4.5-3.4,4.5Z"/>
          <path class="cls-1" d="M88.5,58.2v2c0,5.5-4.4,9.9-9.9,9.9h-5.4v-.6c0-5.9-2.3-11.6-6.5-15.8,0,0-4.2-3.2-3.6-4.2h0c1.8.5,3.7.8,5.6.8,5.5,0,10.5-2.3,14.1-5.9,3.5,3.6,5.7,8.5,5.7,13.9Z"/>
        </g>
      </g>
    </g>
  </g>
  <g id="Ebene_19" data-name="Ebene 19" class="cls-4">
    <g>
      <g>
        <path class="cls-2" d="M50,18.6c-16,0-28.9,13-28.9,28.9s2.1,12.2,5.6,17c0-1.2.3-2.3.6-3.4.4-1.6,1.1-3.1,1.9-4.5-1.2-2.8-1.9-5.8-1.9-9.1,0-12.6,10.2-22.8,22.8-22.8s22.8,10.2,22.8,22.8-.7,6.3-1.9,9.1c.8,1.4,1.4,2.8,1.8,4.4,0,.2.1.4.1.6.2,1,.4,2.1.4,3,3.5-4.8,5.7-10.7,5.7-17.2,0-16-13-28.9-28.9-28.9Z"/>
        <g>
          <path class="cls-2" d="M50,52.7c6.8,0,12.3-5.5,12.3-12.3s-5.5-12.3-12.3-12.3-12.3,5.5-12.3,12.3,5.5,12.3,12.3,12.3Z"/>
          <path class="cls-2" d="M64.6,54.7c-3.7,3.8-8.9,6.2-14.6,6.2s-10.9-2.4-14.6-6.2c-3.6,3.7-5.9,8.8-5.9,14.4v2.1c0,5.7,4.6,10.3,10.3,10.3h20.5c5.7,0,10.3-4.6,10.3-10.3v-2.1c0-5.6-2.3-10.7-5.9-14.4Z"/>
        </g>
      </g>
      <g>
        <path class="cls-1" d="M50,18.6c-16,0-28.9,13-28.9,28.9s2.1,12.2,5.6,17c0-1.2.3-2.3.6-3.4.4-1.6,1.1-3.1,1.9-4.5-1.2-2.8-1.9-5.8-1.9-9.1,0-12.6,10.2-22.8,22.8-22.8s22.8,10.2,22.8,22.8-.7,6.3-1.9,9.1c.8,1.4,1.4,2.8,1.8,4.4,0,.2.1.4.1.6.2,1,.4,2.1.4,3,3.5-4.8,5.7-10.7,5.7-17.2,0-16-13-28.9-28.9-28.9Z"/>
        <g>
          <path class="cls-1" d="M50,52.7c6.8,0,12.3-5.5,12.3-12.3s-5.5-12.3-12.3-12.3-12.3,5.5-12.3,12.3,5.5,12.3,12.3,12.3Z"/>
          <path class="cls-1" d="M64.6,54.7c-3.7,3.8-8.9,6.2-14.6,6.2s-10.9-2.4-14.6-6.2c-3.6,3.7-5.9,8.8-5.9,14.4v2.1c0,5.7,4.6,10.3,10.3,10.3h20.5c5.7,0,10.3-4.6,10.3-10.3v-2.1c0-5.6-2.3-10.7-5.9-14.4Z"/>
        </g>
      </g>
    </g>
  </g>
  <g id="Ebene_18" data-name="Ebene 18" class="cls-4">
    <g>
      <g>
        <path class="cls-2" d="M88,54.3c-3.2-3.4-6.4-6.7-9.5-10.1-1.9-2.1-4.3-3.1-7.1-3.1-4.8,0-9.5,0-14.3,0s-5.2,1-7.1,3c-1,1.1-2.2,2.1-3.4,3.2-1.8-2.6-4.6-2.9-7.5-2.8-4.4.1-8.8,0-13.1,0-2.1,0-3.9.7-5.3,2.3-2.9,3.2-5.9,6.3-8.8,9.5-1.4,1.5-1.5,3.2-.4,4.4,1.2,1.3,2.9,1.4,4.6,0,1.9-1.5,3.8-3.1,5.8-4.6.4-.3,1.3-.6,1.7-.4s.5,1.1.4,1.7c-.4,2.9-1,5.7-1.6,8.6-.9,5.1-1.8,10.1-2.8,15.3h20.3c.6-3.4.3-6.3-2.8-8.5-2.2-1.6-4-3.7-5.9-5.6-1.6-1.6-1.8-3.3-.6-4.7,1.2-1.4,3.1-1.4,4.8,0,2.1,1.7,4.2,3.4,6.4,5.1,4.2,3.3,9.1,3.3,13.4,0,2.1-1.7,4.2-3.4,6.4-5.1,1.8-1.4,3.6-1.3,4.8,0,1.3,1.4,1.1,3.1-.5,4.7-2.1,2-4,4.3-6.4,6-3,2.2-2.8,5.1-2.4,8.2h17.2v-2.5c0-8.1,0-16.2,0-24.3,0-.6.3-1.4.8-1.8.3-.2,1.2.2,1.7.6,2.3,1.8,4.5,3.8,6.7,5.6,1.8,1.6,3.6,1.6,5,.2,1.4-1.4,1.3-3.3-.4-5.1ZM48.5,67.6c-4.5,0-8.3-3.6-8.3-8.1,0-4.5,3.6-8.2,8.1-8.3,4.5,0,8.3,3.7,8.3,8.1,0,4.5-3.7,8.2-8.2,8.3Z"/>
        <path class="cls-2" d="M64.3,18.6c5.6,0,10.1,4.5,10,10.1,0,5.5-4.5,9.9-10,10-5.6,0-10.2-4.5-10.1-10,0-5.6,4.5-10.1,10.1-10Z"/>
        <path class="cls-2" d="M42.5,33c0,5.1-4.1,9.2-9.2,9.2-5.1,0-9.2-4.1-9.2-9.2,0-5.1,4.1-9.2,9.2-9.2,5.1,0,9.2,4.1,9.2,9.2Z"/>
      </g>
      <g>
        <path class="cls-1" d="M88,54.3c-3.2-3.4-6.4-6.7-9.5-10.1-1.9-2.1-4.3-3.1-7.1-3.1-4.8,0-9.5,0-14.3,0s-5.2,1-7.1,3c-1,1.1-2.2,2.1-3.4,3.2-1.8-2.6-4.6-2.9-7.5-2.8-4.4.1-8.8,0-13.1,0-2.1,0-3.9.7-5.3,2.3-2.9,3.2-5.9,6.3-8.8,9.5-1.4,1.5-1.5,3.2-.4,4.4,1.2,1.3,2.9,1.4,4.6,0,1.9-1.5,3.8-3.1,5.8-4.6.4-.3,1.3-.6,1.7-.4s.5,1.1.4,1.7c-.4,2.9-1,5.7-1.6,8.6-.9,5.1-1.8,10.1-2.8,15.3h20.3c.6-3.4.3-6.3-2.8-8.5-2.2-1.6-4-3.7-5.9-5.6-1.6-1.6-1.8-3.3-.6-4.7,1.2-1.4,3.1-1.4,4.8,0,2.1,1.7,4.2,3.4,6.4,5.1,4.2,3.3,9.1,3.3,13.4,0,2.1-1.7,4.2-3.4,6.4-5.1,1.8-1.4,3.6-1.3,4.8,0,1.3,1.4,1.1,3.1-.5,4.7-2.1,2-4,4.3-6.4,6-3,2.2-2.8,5.1-2.4,8.2h17.2v-2.5c0-8.1,0-16.2,0-24.3,0-.6.3-1.4.8-1.8.3-.2,1.2.2,1.7.6,2.3,1.8,4.5,3.8,6.7,5.6,1.8,1.6,3.6,1.6,5,.2,1.4-1.4,1.3-3.3-.4-5.1ZM48.5,67.6c-4.5,0-8.3-3.6-8.3-8.1,0-4.5,3.6-8.2,8.1-8.3,4.5,0,8.3,3.7,8.3,8.1,0,4.5-3.7,8.2-8.2,8.3Z"/>
        <path class="cls-1" d="M64.3,18.6c5.6,0,10.1,4.5,10,10.1,0,5.5-4.5,9.9-10,10-5.6,0-10.2-4.5-10.1-10,0-5.6,4.5-10.1,10.1-10Z"/>
        <path class="cls-1" d="M42.5,33c0,5.1-4.1,9.2-9.2,9.2-5.1,0-9.2-4.1-9.2-9.2,0-5.1,4.1-9.2,9.2-9.2,5.1,0,9.2,4.1,9.2,9.2Z"/>
      </g>
    </g>
  </g>
  <g id="Ebene_17" data-name="Ebene 17" class="cls-4">
    <path class="cls-1" d="M44.9,46.3c-.9,0-1,0-1,.4s.1.4,1,.4c.5,0,.8-.2.8-.6v-.2h-.8ZM44.9,46.3c-.9,0-1,0-1,.4s.1.4,1,.4c.5,0,.8-.2.8-.6v-.2h-.8ZM44.9,46.3c-.9,0-1,0-1,.4s.1.4,1,.4c.5,0,.8-.2.8-.6v-.2h-.8ZM44.9,46.3c-.9,0-1,0-1,.4s.1.4,1,.4c.5,0,.8-.2.8-.6v-.2h-.8ZM83,42.6l-22.8-3.3-10.2-20.7-10.2,20.7-22.8,3.3,16.5,16.1-3.9,22.7,20.4-10.7,20.4,10.7-3.9-22.7,16.5-16.1ZM54.3,43h1.7v1c.1-.7.6-1,1.5-1h.6v1.5h-1.2c-.7,0-.9.2-.9.8v3h-1.7v-5.2ZM48.3,41.2h1.7v2.6c.2-.7.7-.9,1.6-.9,1.4,0,1.7.4,1.7,2v3.4h-1.7v-3c0-.9,0-1-.7-1s-.9.3-.9,1v2.9h-1.7v-7ZM44.9,44.1c-.8,0-.9,0-.9.7h-1.7v-.2c0-1.4.5-1.7,2.6-1.7s2.4.4,2.4,1.8v3.5h-1.7v-.7c-.2.6-.6.8-1.5.8-1.6,0-2-.3-2-1.6s.4-1.6,2-1.6h1.5v-.3c0-.6,0-.7-.8-.7ZM36,45.9v-.7h1.8v.7c0,.8,0,.9.9.9s.8,0,.8-.9v-4.5h1.8v4.5c0,1.9-.5,2.4-2.7,2.4s-2.7-.5-2.7-2.4ZM45.7,67h-4.2v-11.4h-4.2v-3.1h2c1.9,0,2.4-.4,2.4-2.7h3.9v17.1ZM54.6,67.3c-5.9,0-7.4-1.1-7.4-5.3h4.4c0,1.6.3,1.8,2.9,1.8s3.4-.3,3.4-1.9-.5-1.8-3.4-1.8h-2.7v-3.5h2.8c2.5,0,2.9-.3,2.9-1.7s-.5-1.7-2.9-1.7-2.9.1-2.9,1.4h-4.2c0-3.9,1.4-4.9,7.1-4.9s7.1.9,7.1,4.6-.8,3.7-2.5,4c2.1.3,3,1.6,3,4.3s-1.5,4.7-7.6,4.7ZM64,46.1h-3.6c0,.9.2,1,.9,1s.9-.1.9-.5h1.8c0,1.4-.6,1.8-2.6,1.8s-2.7-.5-2.7-2.7.5-2.7,2.7-2.7,2.6.5,2.7,2.4v.8ZM61.4,44.1c-.7,0-.9,0-.9.8h1.8c0-.7-.1-.8-.9-.8ZM43.9,46.7c0,.4.1.4,1,.4.5,0,.8-.2.8-.6v-.2h-.8c-.9,0-1,0-1,.4ZM44.9,46.3c-.9,0-1,0-1,.4s.1.4,1,.4c.5,0,.8-.2.8-.6v-.2h-.8ZM44.9,46.3c-.9,0-1,0-1,.4s.1.4,1,.4c.5,0,.8-.2.8-.6v-.2h-.8Z"/>
  </g>
  <g id="Ebene_16" data-name="Ebene 16" class="cls-4">
    <g>
      <g>
        <path class="cls-1" d="M50,32.7c-8.3,0-15.1,6.8-15.1,15.1s6.7,15,15.1,15,15-6.8,15-15-6.7-15.1-15-15.1ZM57.9,44.5l-8.9,8.9c-.3.3-.7.5-1.2.5s-.9-.2-1.2-.5l-4.5-4.5c-.6-.7-.6-1.7,0-2.4.7-.6,1.7-.6,2.4,0l3.3,3.3,7.7-7.7c.6-.7,1.7-.7,2.4,0,.7.7.7,1.7,0,2.4Z"/>
        <path class="cls-1" d="M74.8,32.8c-5.6-1-9.6-5.9-9.6-11.5s-.6-1.5-1.4-1.6l-13.5-2.5c-.2,0-.4,0-.6,0l-13.5,2.5c-.8.1-1.4.9-1.4,1.6,0,5.7-4.1,10.5-9.6,11.5-.8.1-1.4.8-1.4,1.6v13.2c0,7.6,2.3,14.9,6.7,21.1,4.4,6.2,10.5,10.9,17.6,13.5l1.3.5c.2,0,.4.1.6.1s.4,0,.6-.1l1.4-.5c7.1-2.6,13.2-7.3,17.6-13.5,4.4-6.2,6.7-13.5,6.7-21.1v-13.2c0-.8-.6-1.5-1.4-1.6ZM50,66.2c-10.1,0-18.4-8.2-18.4-18.4s8.3-18.4,18.4-18.4,18.4,8.2,18.4,18.4-8.3,18.4-18.4,18.4Z"/>
      </g>
      <g>
        <path class="cls-1" d="M50,32.7c-8.3,0-15.1,6.8-15.1,15.1s6.7,15,15.1,15,15-6.8,15-15-6.7-15.1-15-15.1ZM57.9,44.5l-8.9,8.9c-.3.3-.7.5-1.2.5s-.9-.2-1.2-.5l-4.5-4.5c-.6-.7-.6-1.7,0-2.4.7-.6,1.7-.6,2.4,0l3.3,3.3,7.7-7.7c.6-.7,1.7-.7,2.4,0,.7.7.7,1.7,0,2.4Z"/>
        <path class="cls-1" d="M74.8,32.8c-5.6-1-9.6-5.9-9.6-11.5s-.6-1.5-1.4-1.6l-13.5-2.5c-.2,0-.4,0-.6,0l-13.5,2.5c-.8.1-1.4.9-1.4,1.6,0,5.7-4.1,10.5-9.6,11.5-.8.1-1.4.8-1.4,1.6v13.2c0,7.6,2.3,14.9,6.7,21.1,4.4,6.2,10.5,10.9,17.6,13.5l1.3.5c.2,0,.4.1.6.1s.4,0,.6-.1l1.4-.5c7.1-2.6,13.2-7.3,17.6-13.5,4.4-6.2,6.7-13.5,6.7-21.1v-13.2c0-.8-.6-1.5-1.4-1.6ZM50,66.2c-10.1,0-18.4-8.2-18.4-18.4s8.3-18.4,18.4-18.4,18.4,8.2,18.4,18.4-8.3,18.4-18.4,18.4Z"/>
      </g>
    </g>
  </g>
  <g id="Ebene_15" data-name="Ebene 15" class="cls-4">
    <g>
      <g>
        <path class="cls-1" d="M89.8,40.1v1.6c0,.5-.3,1-.8,1.2l-36.9,13.6c-1.4.5-2.9.5-4.2,0l-26.8-9.9v21.5c0,1-.8,1.8-1.8,1.8s-1.8-.8-1.8-1.8v-22.8l-6.5-2.4c-.5-.2-.8-.7-.8-1.2v-1.6c0-.5.3-1,.8-1.2l36.9-13.6c1.4-.5,2.9-.5,4.2,0l36.9,13.6c.5.2.8.7.8,1.2Z"/>
        <path class="cls-1" d="M75.4,54.3v13.9c0,.5-.3,1-.8,1.2h0c-15.5,7.5-33.7,7.5-49.2,0h0c-.5-.2-.8-.7-.8-1.2v-13.9c0-.9.9-1.5,1.7-1.2l21.6,7.9c1.4.5,2.9.5,4.2,0l21.6-7.9c.8-.3,1.7.3,1.7,1.2Z"/>
      </g>
      <g>
        <g>
          <path class="cls-1" d="M89.8,40.1v1.6c0,.5-.3,1-.8,1.2l-36.9,13.6c-1.4.5-2.9.5-4.2,0l-26.8-9.9v21.5c0,1-.8,1.8-1.8,1.8s-1.8-.8-1.8-1.8v-22.8l-6.5-2.4c-.5-.2-.8-.7-.8-1.2v-1.6c0-.5.3-1,.8-1.2l36.9-13.6c1.4-.5,2.9-.5,4.2,0l36.9,13.6c.5.2.8.7.8,1.2Z"/>
          <path class="cls-1" d="M89.8,40.1v1.6c0,.5-.3,1-.8,1.2l-36.9,13.6c-1.4.5-2.9.5-4.2,0l-26.8-9.9v21.5c0,1-.8,1.8-1.8,1.8s-1.8-.8-1.8-1.8v-22.8l-6.5-2.4c-.5-.2-.8-.7-.8-1.2v-1.6c0-.5.3-1,.8-1.2l36.9-13.6c1.4-.5,2.9-.5,4.2,0l36.9,13.6c.5.2.8.7.8,1.2Z"/>
        </g>
        <g>
          <path class="cls-1" d="M75.4,54.3v13.9c0,.5-.3,1-.8,1.2h0c-15.5,7.5-33.7,7.5-49.2,0h0c-.5-.2-.8-.7-.8-1.2v-13.9c0-.9.9-1.5,1.7-1.2l21.6,7.9c1.4.5,2.9.5,4.2,0l21.6-7.9c.8-.3,1.7.3,1.7,1.2Z"/>
          <path class="cls-1" d="M75.4,54.3v13.9c0,.5-.3,1-.8,1.2h0c-15.5,7.5-33.7,7.5-49.2,0h0c-.5-.2-.8-.7-.8-1.2v-13.9c0-.9.9-1.5,1.7-1.2l21.6,7.9c1.4.5,2.9.5,4.2,0l21.6-7.9c.8-.3,1.7.3,1.7,1.2Z"/>
        </g>
      </g>
    </g>
  </g>
  <g id="Ebene_14" data-name="Ebene 14" class="cls-4">
    <g>
      <g>
        <g>
          <path class="cls-1" d="M68.5,75.7c-1.5.3-3,1.1-4,2.3l-5.1,6.2-6.8-11.7c2.3-.4,4.5-1.4,6.3-2.8.2,0,.3,0,.5,0,3.1,0,6.1-1,8.6-2.8,1-.7,1.9-1.5,2.6-2.4l5.8,9.9-8,1.3Z"/>
          <path class="cls-1" d="M47.3,72.6l-6.8,11.7-5.1-6.2c-1-1.2-2.4-2.1-4-2.3l-8-1.3,5.8-10c.8.9,1.7,1.7,2.6,2.5,2.5,1.8,5.5,2.8,8.6,2.8s.3,0,.5,0c1.9,1.4,4,2.4,6.3,2.8Z"/>
        </g>
        <path class="cls-1" d="M75.1,33.9c-.9-2.8-2.9-5-5.4-6.1h0c-.3-2.7-1.8-5.3-4.1-7.1-2.4-1.8-5.3-2.3-8-1.8-1.9-2-4.5-3.3-7.5-3.3s-5.6,1.3-7.5,3.3c-2.7-.5-5.6,0-8,1.8-2.4,1.7-3.8,4.3-4.2,7.1h0c-2.5,1.2-4.5,3.3-5.4,6.1-.9,2.8-.5,5.8.8,8.2-1.3,2.4-1.7,5.3-.8,8.1.9,2.8,2.9,5,5.4,6.1h0c.3,2.7,1.7,5.3,4.2,7.1,2.4,1.7,5.3,2.3,8,1.8,1.9,2,4.5,3.3,7.5,3.3s5.6-1.3,7.5-3.3c2.7.5,5.6,0,8-1.8,2.4-1.8,3.8-4.4,4.1-7.1h0c2.5-1.1,4.5-3.3,5.4-6.1.9-2.8.6-5.7-.8-8.1,1.4-2.4,1.7-5.3.8-8.2ZM69.1,46.6c-.2,1.1-.6,2.1-1,3.1-1.2,2.8-3,5.3-5.3,7.3-.8.7-1.7,1.3-2.6,1.9-2.5,1.6-5.4,2.5-8.6,2.8-.5,0-1.1,0-1.6,0s-1.1,0-1.7,0c-3.1-.2-6-1.2-8.6-2.8-.9-.6-1.8-1.2-2.6-1.9-2.3-2-4.1-4.4-5.3-7.3-.4-1-.8-2-1-3.1-.4-1.4-.5-2.9-.5-4.5s.2-3.1.5-4.5c.3-1.1.6-2.1,1-3.1,1.2-2.8,3-5.3,5.3-7.3.8-.7,1.7-1.3,2.6-1.9,2.5-1.6,5.4-2.5,8.6-2.8.5,0,1.1,0,1.7,0s1.1,0,1.6,0c3.1.2,6,1.2,8.6,2.8.9.6,1.8,1.2,2.6,1.9,2.3,2,4.1,4.4,5.3,7.3.4,1,.8,2.1,1,3.1.3,1.4.5,3,.5,4.5s-.2,3-.5,4.5Z"/>
        <path class="cls-1" d="M50,26.7c-8.5,0-15.4,6.9-15.4,15.4s6.9,15.4,15.4,15.4,15.4-6.9,15.4-15.4-6.9-15.4-15.4-15.4ZM58,38.8l-9.1,9.1c-.3.3-.8.5-1.2.5s-.9-.2-1.2-.5l-4.6-4.6c-.7-.7-.7-1.8,0-2.4.7-.7,1.7-.7,2.4,0l3.4,3.4,7.9-7.9c.7-.7,1.7-.7,2.4,0,.7.7.7,1.7,0,2.4Z"/>
      </g>
      <g>
        <g>
          <path class="cls-1" d="M68.5,75.7c-1.5.3-3,1.1-4,2.3l-5.1,6.2-6.8-11.7c2.3-.4,4.5-1.4,6.3-2.8.2,0,.3,0,.5,0,3.1,0,6.1-1,8.6-2.8,1-.7,1.9-1.5,2.6-2.4l5.8,9.9-8,1.3Z"/>
          <path class="cls-1" d="M47.3,72.6l-6.8,11.7-5.1-6.2c-1-1.2-2.4-2.1-4-2.3l-8-1.3,5.8-10c.8.9,1.7,1.7,2.6,2.5,2.5,1.8,5.5,2.8,8.6,2.8s.3,0,.5,0c1.9,1.4,4,2.4,6.3,2.8Z"/>
        </g>
        <path class="cls-1" d="M75.1,33.9c-.9-2.8-2.9-5-5.4-6.1h0c-.3-2.7-1.8-5.3-4.1-7.1-2.4-1.8-5.3-2.3-8-1.8-1.9-2-4.5-3.3-7.5-3.3s-5.6,1.3-7.5,3.3c-2.7-.5-5.6,0-8,1.8-2.4,1.7-3.8,4.3-4.2,7.1h0c-2.5,1.2-4.5,3.3-5.4,6.1-.9,2.8-.5,5.8.8,8.2-1.3,2.4-1.7,5.3-.8,8.1.9,2.8,2.9,5,5.4,6.1h0c.3,2.7,1.7,5.3,4.2,7.1,2.4,1.7,5.3,2.3,8,1.8,1.9,2,4.5,3.3,7.5,3.3s5.6-1.3,7.5-3.3c2.7.5,5.6,0,8-1.8,2.4-1.8,3.8-4.4,4.1-7.1h0c2.5-1.1,4.5-3.3,5.4-6.1.9-2.8.6-5.7-.8-8.1,1.4-2.4,1.7-5.3.8-8.2ZM69.1,46.6c-.2,1.1-.6,2.1-1,3.1-1.2,2.8-3,5.3-5.3,7.3-.8.7-1.7,1.3-2.6,1.9-2.5,1.6-5.4,2.5-8.6,2.8-.5,0-1.1,0-1.6,0s-1.1,0-1.7,0c-3.1-.2-6-1.2-8.6-2.8-.9-.6-1.8-1.2-2.6-1.9-2.3-2-4.1-4.4-5.3-7.3-.4-1-.8-2-1-3.1-.4-1.4-.5-2.9-.5-4.5s.2-3.1.5-4.5c.3-1.1.6-2.1,1-3.1,1.2-2.8,3-5.3,5.3-7.3.8-.7,1.7-1.3,2.6-1.9,2.5-1.6,5.4-2.5,8.6-2.8.5,0,1.1,0,1.7,0s1.1,0,1.6,0c3.1.2,6,1.2,8.6,2.8.9.6,1.8,1.2,2.6,1.9,2.3,2,4.1,4.4,5.3,7.3.4,1,.8,2.1,1,3.1.3,1.4.5,3,.5,4.5s-.2,3-.5,4.5Z"/>
        <path class="cls-1" d="M50,26.7c-8.5,0-15.4,6.9-15.4,15.4s6.9,15.4,15.4,15.4,15.4-6.9,15.4-15.4-6.9-15.4-15.4-15.4ZM58,38.8l-9.1,9.1c-.3.3-.8.5-1.2.5s-.9-.2-1.2-.5l-4.6-4.6c-.7-.7-.7-1.8,0-2.4.7-.7,1.7-.7,2.4,0l3.4,3.4,7.9-7.9c.7-.7,1.7-.7,2.4,0,.7.7.7,1.7,0,2.4Z"/>
      </g>
    </g>
  </g>
  <g id="Ebene_13" data-name="Ebene 13" class="cls-4">
    <g>
      <g>
        <path class="cls-2" d="M34.2,21.2c2.5,0,4.5,1.9,4.7,4.3v.8c.3,3.1,1,6.1,1.7,9.2s-.2,3.2-1.3,4.2c-2,1.8-3.9,3.8-5.7,5.7-.3.3-.5,1.1-.3,1.4,4.5,8.4,10.9,14.9,19.2,19.6.8.5,1.9.3,2.6-.4,1.8-1.8,3.6-3.5,5.3-5.3,1.3-1.4,2.7-1.6,4.4-1.3,3.3.7,6.6,1.3,9.9,1.6s0,0,.1,0c2.3.2,4,2.1,4,4.4s0,7,0,9.3-.4,2-1.2,2.8h0c-.7.7-1.7,1.2-2.8,1.2,0,0-4.3-.2-4.7-.3-23.8-2.3-43.4-20.2-48-43.6-.3-1.3-.5-2.7-.7-4.1-.3-1.9-.4-3.9-.4-5.9h0c0-1,.4-2,1.2-2.8h0c.7-.7,1.7-1.2,2.8-1.2h9.1Z"/>
        <path class="cls-2" d="M75.3,32.4h-7.9v-7.7c0-.5-.4-.9-.9-.9h-4.7c-.5,0-.9.4-.9.9v7.7h-7.8c-.5,0-.9.4-.9.9v4.4c0,.5.4.9.9.9h7.8v7.7c0,.5.4.9.9.9h4.7c.5,0,.9-.4.9-.9v-7.7h7.9c.5,0,.9-.4.9-.9v-4.4c0-.5-.4-.9-.9-.9Z"/>
      </g>
      <g>
        <path class="cls-1" d="M34.2,21.2c2.5,0,4.5,1.9,4.7,4.3v.8c.3,3.1,1,6.1,1.7,9.2s-.2,3.2-1.3,4.2c-2,1.8-3.9,3.8-5.7,5.7-.3.3-.5,1.1-.3,1.4,4.5,8.4,10.9,14.9,19.2,19.6.8.5,1.9.3,2.6-.4,1.8-1.8,3.6-3.5,5.3-5.3,1.3-1.4,2.7-1.6,4.4-1.3,3.3.7,6.6,1.3,9.9,1.6s0,0,.1,0c2.3.2,4,2.1,4,4.4s0,7,0,9.3-.4,2-1.2,2.8h0c-.7.7-1.7,1.2-2.8,1.2,0,0-4.3-.2-4.7-.3-23.8-2.3-43.4-20.2-48-43.6-.3-1.3-.5-2.7-.7-4.1-.3-1.9-.4-3.9-.4-5.9h0c0-1,.4-2,1.2-2.8h0c.7-.7,1.7-1.2,2.8-1.2h9.1Z"/>
        <path class="cls-1" d="M75.3,32.4h-7.9v-7.7c0-.5-.4-.9-.9-.9h-4.7c-.5,0-.9.4-.9.9v7.7h-7.8c-.5,0-.9.4-.9.9v4.4c0,.5.4.9.9.9h7.8v7.7c0,.5.4.9.9.9h4.7c.5,0,.9-.4.9-.9v-7.7h7.9c.5,0,.9-.4.9-.9v-4.4c0-.5-.4-.9-.9-.9Z"/>
      </g>
    </g>
  </g>
  <g id="Ebene_12" data-name="Ebene 12" class="cls-4">
    <g>
      <g>
        <path class="cls-1" d="M60.4,27c-.8,0-1.6,0-2.4,0-.7,0-.8-.1-.8-.8,0-.9,0-1.9,0-2.8,0-.2,0-.3,0-.5,0-.6,0-1.2.1-1.8,0-.3.2-.6.3-.8.8-1.3,2.3-1.9,3.6-1.5,1.2.4,2,1.2,2.2,2.5,0,.4,0,.7,0,1.1,0,1.3,0,2.5,0,3.8,0,0,0,0,0,0,0,.7,0,.8-.8.8-.7,0-1.3,0-2,0-.2,0-.3,0-.5,0h0Z"/>
        <path class="cls-1" d="M27,39.6c0,.8,0,1.7,0,2.5,0,.6-.1.7-.7.7-1.4,0-2.8,0-4.3,0-1.2,0-2.2-.5-2.9-1.5-.5-.7-.7-1.5-.5-2.4.2-1.1.9-1.9,2-2.4.4-.2.9-.3,1.4-.3,1.5,0,3,0,4.4,0,.4,0,.6.1.6.6,0,.9,0,1.8,0,2.7h0Z"/>
        <path class="cls-1" d="M50,27c-.8,0-1.6,0-2.4,0,0,0,0,0,0,0-.6,0-.7-.1-.7-.7,0-1.5,0-3.1,0-4.6,0-1.3.8-2.6,2.3-3,1.2-.3,2.3,0,3.1.8.6.6.9,1.3.9,2.2,0,1.5,0,3,0,4.6,0,0,0,0,0,0,0,.6-.1.7-.7.7-.8,0-1.7,0-2.5,0h0Z"/>
        <path class="cls-1" d="M39.5,27c-.8,0-1.6,0-2.4,0,0,0,0,0-.1,0-.5,0-.6-.1-.6-.7,0-1.5,0-2.9,0-4.4,0-.8.3-1.5.7-2.2.2-.3.5-.5.8-.7,1.2-.7,2.5-.6,3.6.3.4.3.8.7,1,1.3,0,.2.1.4.2.6.1.6.1,1.3.1,1.9,0,1,0,2.1,0,3.1,0,.7-.1.8-.8.8-.8,0-1.7,0-2.5,0h0Z"/>
        <path class="cls-1" d="M73,39.6c0-.8,0-1.7,0-2.5,0,0,0-.1,0-.2,0-.4.1-.5.5-.5,1.5,0,3,0,4.6,0,1.1,0,2.1.5,2.7,1.4.5.7.7,1.5.5,2.4-.3,1.1-.9,1.9-2,2.4-.2,0-.4.1-.5.2-.8.1-1.6.1-2.4,0-.7,0-1.5,0-2.2,0-.2,0-.5,0-.7,0-.4,0-.5-.2-.5-.5,0-.6,0-1.1,0-1.7,0-.3,0-.7,0-1h0Z"/>
        <path class="cls-1" d="M50,73c.8,0,1.7,0,2.5,0,.6,0,.7.1.7.7,0,1.5,0,3,0,4.6,0,1.3-.8,2.6-2.3,3-1.2.3-2.3,0-3.2-.9-.6-.6-.9-1.3-.9-2.1,0-1.5,0-3.1,0-4.6,0-.6.1-.7.7-.7.8,0,1.7,0,2.5,0Z"/>
        <path class="cls-1" d="M73,60.4c0-.8,0-1.6,0-2.4,0-.7,0-.8.8-.8.6,0,1.1,0,1.7,0,.9,0,1.8,0,2.7,0,.5,0,1.1,0,1.5.4,1.1.7,1.8,1.6,1.7,2.9,0,.7-.3,1.4-.8,2-.3.3-.6.6-.9.7-.5.3-1.1.4-1.6.4-1.5,0-2.9,0-4.4,0,0,0,0,0-.1,0-.3,0-.5-.2-.5-.5,0-.1,0-.3,0-.4,0-.8,0-1.6,0-2.3Z"/>
        <path class="cls-1" d="M27,60.4c0,.8,0,1.6,0,2.4,0,.1,0,.2,0,.3,0,.3-.1.4-.4.4,0,0-.2,0-.2,0-1.4,0-2.9,0-4.3,0-1.1,0-2.1-.4-2.8-1.4-.6-.8-.8-1.7-.5-2.7.3-1,1-1.7,2-2.1.6-.2,1.2-.3,1.8-.3.8,0,1.7,0,2.5,0,.4,0,.9,0,1.3,0,.5,0,.6.2.6.6,0,.9,0,1.8,0,2.6h0Z"/>
        <path class="cls-1" d="M36.4,75.9c0-.7,0-1.4,0-2.1,0-.1,0-.2,0-.3,0-.3.1-.4.4-.4.1,0,.2,0,.3,0,1.7,0,3.3,0,5,0,.1,0,.3,0,.4,0,.2,0,.3.1.3.4,0,0,0,.2,0,.3,0,1.4,0,2.9,0,4.3,0,.6-.1,1.2-.4,1.7-.7,1.1-1.7,1.8-3.1,1.7-.7,0-1.4-.3-1.9-.8-.2-.2-.3-.3-.5-.5-.5-.6-.6-1.3-.6-2,0-.7,0-1.4,0-2.1h0Z"/>
        <path class="cls-1" d="M60.5,73c.8,0,1.6,0,2.4,0,.1,0,.2,0,.3,0,.3,0,.5.1.5.5,0,.2,0,.5,0,.7,0,1.2,0,2.5,0,3.7,0,.8-.2,1.5-.6,2.2-.7,1-2.3,1.6-3.5,1.2-1-.4-1.7-1-2.1-2-.1-.3-.1-.7-.1-1,0-1.5,0-2.9,0-4.4,0-.1,0-.3,0-.4,0-.2.1-.3.4-.4.1,0,.3,0,.4,0,.8,0,1.6,0,2.4,0Z"/>
        <path class="cls-1" d="M73,50c0-.8,0-1.6,0-2.4,0-.1,0-.2,0-.3,0-.2.1-.3.4-.4,0,0,.2,0,.3,0,1.5,0,3,0,4.5,0,.9,0,1.6.3,2.3.9.8.7,1.3,2.2.6,3.5-.6,1.3-1.6,1.9-3,1.9-1.5,0-3,0-4.4,0-.6,0-.7-.1-.7-.7,0-.8,0-1.7,0-2.5Z"/>
        <path class="cls-1" d="M27,50c0,.8,0,1.6,0,2.4,0,0,0,.2,0,.3,0,.3-.1.4-.5.5,0,0-.2,0-.3,0-1.5,0-3,0-4.5,0-1.1,0-2.5-.8-3-2.2-.5-1.5.4-3.7,2.5-4.1.2,0,.3,0,.5,0,1.5,0,3,0,4.6,0,0,0,.1,0,.2,0,.4,0,.5.2.5.5,0,.9,0,1.8,0,2.6h0Z"/>
        <g>
          <path class="cls-1" d="M70.1,50.1c0,5.7,0,11.3,0,17,0,.3,0,.6,0,.9-.2,1.2-1.1,2-2.4,2.1-.6,0-1.2,0-1.8,0-.4,0-.5-.2-.5-.5,0-.1,0-.2,0-.3,0-1.9,0-3.8,0-5.7,0-1.2-.4-2.2-1.3-3.1-.4-.5-.9-.9-1.3-1.3-.4-.4-.5-.8-.5-1.3,0-1.1,0-2.1,0-3.2,0-.4.2-.6.5-.7,1.4-.6,2.3-1.7,2.6-3.2.2-1.1-.3-2.9-1.1-3.5-.1-.1-.3-.3-.4-.4-.7-.6-1.5-.9-2.4-1-.7,0-1.4,0-2.1.4-.7.3-1.3.8-1.7,1.5-.5.7-.8,1.5-.7,2.4,0,.9.3,1.8.9,2.5.5.6,1.1,1.1,1.8,1.4.4.1.5.4.5.7,0,1,0,1.9,0,2.9,0,.8.2,1.5.6,2.2.1.2.3.5.5.7.4.5.9.9,1.4,1.4.2.2.3.3.4.5.2.3.3.6.3.9,0,2.1,0,4.1,0,6.2,0,0,0,.2,0,.2,0,.2-.2.3-.4.4-.2,0-.3,0-.5,0-6,0-12,0-18,0-3.9,0-7.7,0-11.6,0-.6,0-1.1-.1-1.6-.5-.7-.5-1-1.1-1.1-2,0-.6,0-1.1,0-1.7,0-.5.1-.6.6-.6.7,0,1.5,0,2.2,0,1.8,0,3.5,0,5.3,0,1.2,0,2.2-.4,3.1-1.3.2-.2.5-.5.7-.7.4-.4.9-.6,1.5-.6.6,0,1.2,0,1.9,0,.8,0,1.6,0,2.4,0,.2,0,.4,0,.5,0,.3,0,.5.1.6.4,0,0,0,.1,0,.2.7,1.4,1.7,2.3,3.3,2.5,2,.3,3.6-.8,4.3-2.2.6-1.2.7-2.5,0-3.8-.6-1.3-1.7-2.1-3-2.3-1-.2-2.1,0-3,.6-.8.5-1.4,1.2-1.7,2.1-.1.3-.3.4-.7.4-1,0-1.9,0-2.9,0-.6,0-1.2,0-1.8,0-1.1,0-2.1.4-2.9,1.2-.3.3-.6.6-.9.8-.4.4-.9.6-1.5.6-2.4,0-4.9,0-7.3,0-.1,0-.3,0-.4,0-.2,0-.3-.1-.4-.4,0-.1,0-.2,0-.3,0-2,0-3.9,0-5.9,0-.6.1-.7.7-.7,4.9,0,9.8,0,14.7,0,.4,0,.9,0,1.3,0,.8,0,1.6-.3,2.3-.8.3-.3.6-.5.9-.8.6-.6,1.3-1.3,1.9-1.9.9-.9,1.4-2,1.4-3.3,0-.5,0-1,0-1.5,0-.6.2-1,.6-1.4.9-.9,1.8-1.9,2.8-2.8.5-.5,1-.7,1.7-.7,1.3,0,2.7,0,4,0,.2,0,.5,0,.7,0,1.1,0,2.2-.8,2.3-2.2,0-.1,0-.3,0-.4,0-3.1,0-6.1,0-9.2,0-.1,0-.3,0-.4,0-.3.2-.5.5-.5.5,0,1,0,1.5,0,.3,0,.7,0,1,.1.9.3,1.4.8,1.7,1.7,0,.3.1.7.1,1,0,5.7,0,11.4,0,17.2Z"/>
          <path class="cls-1" d="M38.7,53.7c-2.6,0-5.3,0-7.9,0-.1,0-.2,0-.4,0-.3,0-.4-.1-.4-.4,0-.1,0-.2,0-.3,0-1.9,0-3.9,0-5.8,0-.1,0-.2,0-.4,0-.2.2-.4.4-.4.1,0,.3,0,.4,0,1.3,0,2.5,0,3.8,0,.4,0,.7,0,1.1-.2.9-.3,1.2-1,1.4-1.9,0-.2,0-.3,0-.5,0-1.8,0-3.7,0-5.5,0-.1,0-.3,0-.4,0-.3.2-.4.4-.4.3,0,.5,0,.8,0,1.9,0,3.8,0,5.8,0,.3,0,.6,0,.8,0,.9-.3,1.4-.9,1.5-1.8,0-.2,0-.3,0-.5,0-1.4,0-2.7,0-4.1,0-.2,0-.4,0-.6,0-.3.2-.4.4-.4.1,0,.2,0,.4,0,1.9,0,3.8,0,5.7,0,.1,0,.2,0,.4,0,.3,0,.4.1.4.4,0,0,0,.2,0,.2,0,1.1,0,2.3,0,3.4,0,.5-.2.9-.5,1.2,0,.1-.2.2-.3.3-2.2,2.2-4.4,4.3-6.5,6.5-.4.4-.7.5-1.1.3-.9-.4-1.8-.4-2.7-.2-1.1.3-2,1-2.5,1.9-.9,1.6-.8,3.1.2,4.6.8,1.2,2,1.8,3.5,1.7,2,0,3.6-1.5,4-3.3.2-.8.2-1.7-.2-2.5-.2-.5-.2-.6.2-1,2.2-2.2,4.4-4.4,6.6-6.6.3-.3.6-.6.8-1,.4-.6.6-1.4.7-2.2,0-1.1,0-2.2,0-3.3,0-.7,0-.8.8-.8,1.9,0,3.9,0,5.8,0,.6,0,.7.1.7.8,0,3,0,6.1,0,9.1,0,.6-.1.7-.7.7-1.4,0-2.9,0-4.3,0-1.1,0-2.1.4-2.8,1.1-1.1,1-2.1,2-3.1,3.1-.7.8-1.1,1.7-1.1,2.7,0,.5,0,1,0,1.5,0,.7-.2,1.2-.6,1.7-.8.8-1.6,1.6-2.4,2.4-.4.4-.8.5-1.4.5-2.7,0-5.3,0-8,0h0Z"/>
          <path class="cls-1" d="M38.1,30c1.8,0,3.5,0,5.3,0,.1,0,.3,0,.4,0,.3,0,.4.1.4.4,0,0,0,.1,0,.2,0,1.3,0,2.6,0,3.9,0,.1,0,.3,0,.4,0,.2-.1.3-.4.3-.1,0-.2,0-.3,0-2.1,0-4.2,0-6.2,0-.3,0-.7,0-1,.2-.9.3-1.5,1.2-1.5,2.1,0,1.9,0,3.9,0,5.8,0,.1,0,.3,0,.4,0,.3-.2.4-.4.4-.1,0-.2,0-.3,0-1.1,0-2.2,0-3.4,0-.6,0-.7-.1-.7-.7,0-3.6,0-7.1,0-10.7,0-.5,0-1,.3-1.5.4-.8,1.2-1.2,2.1-1.3.2,0,.4,0,.6,0,1.7,0,3.4,0,5.1,0Z"/>
          <path class="cls-1" d="M43.7,44.3c1.2,0,2.1.9,2.1,2,0,1.2-.9,2.1-2.2,2.1-1,0-2.1-1-2.1-2.1,0-1.2.9-2.1,2.1-2.1Z"/>
          <path class="cls-1" d="M59.1,50.1c0-1.3,1-2.1,2.1-2.1,1.2,0,2.1,1.1,2.1,2.1,0,1.1-.9,2.1-2.1,2.1-1.1,0-2.1-.8-2.1-2.1Z"/>
          <path class="cls-1" d="M52.7,59.6c1.3,0,2.1.9,2.1,2.1,0,1.1-1,2.1-2.1,2.1-1.1,0-2.1-1-2.1-2.1,0-1.2,1-2.2,2.1-2.1Z"/>
        </g>
      </g>
      <g>
        <path class="cls-1" d="M60.4,27c-.8,0-1.6,0-2.4,0-.7,0-.8-.1-.8-.8,0-.9,0-1.9,0-2.8,0-.2,0-.3,0-.5,0-.6,0-1.2.1-1.8,0-.3.2-.6.3-.8.8-1.3,2.3-1.9,3.6-1.5,1.2.4,2,1.2,2.2,2.5,0,.4,0,.7,0,1.1,0,1.3,0,2.5,0,3.8,0,0,0,0,0,0,0,.7,0,.8-.8.8-.7,0-1.3,0-2,0-.2,0-.3,0-.5,0h0Z"/>
        <path class="cls-1" d="M27,39.6c0,.8,0,1.7,0,2.5,0,.6-.1.7-.7.7-1.4,0-2.8,0-4.3,0-1.2,0-2.2-.5-2.9-1.5-.5-.7-.7-1.5-.5-2.4.2-1.1.9-1.9,2-2.4.4-.2.9-.3,1.4-.3,1.5,0,3,0,4.4,0,.4,0,.6.1.6.6,0,.9,0,1.8,0,2.7h0Z"/>
        <path class="cls-1" d="M50,27c-.8,0-1.6,0-2.4,0,0,0,0,0,0,0-.6,0-.7-.1-.7-.7,0-1.5,0-3.1,0-4.6,0-1.3.8-2.6,2.3-3,1.2-.3,2.3,0,3.1.8.6.6.9,1.3.9,2.2,0,1.5,0,3,0,4.6,0,0,0,0,0,0,0,.6-.1.7-.7.7-.8,0-1.7,0-2.5,0h0Z"/>
        <path class="cls-1" d="M39.5,27c-.8,0-1.6,0-2.4,0,0,0,0,0-.1,0-.5,0-.6-.1-.6-.7,0-1.5,0-2.9,0-4.4,0-.8.3-1.5.7-2.2.2-.3.5-.5.8-.7,1.2-.7,2.5-.6,3.6.3.4.3.8.7,1,1.3,0,.2.1.4.2.6.1.6.1,1.3.1,1.9,0,1,0,2.1,0,3.1,0,.7-.1.8-.8.8-.8,0-1.7,0-2.5,0h0Z"/>
        <path class="cls-1" d="M73,39.6c0-.8,0-1.7,0-2.5,0,0,0-.1,0-.2,0-.4.1-.5.5-.5,1.5,0,3,0,4.6,0,1.1,0,2.1.5,2.7,1.4.5.7.7,1.5.5,2.4-.3,1.1-.9,1.9-2,2.4-.2,0-.4.1-.5.2-.8.1-1.6.1-2.4,0-.7,0-1.5,0-2.2,0-.2,0-.5,0-.7,0-.4,0-.5-.2-.5-.5,0-.6,0-1.1,0-1.7,0-.3,0-.7,0-1h0Z"/>
        <path class="cls-1" d="M50,73c.8,0,1.7,0,2.5,0,.6,0,.7.1.7.7,0,1.5,0,3,0,4.6,0,1.3-.8,2.6-2.3,3-1.2.3-2.3,0-3.2-.9-.6-.6-.9-1.3-.9-2.1,0-1.5,0-3.1,0-4.6,0-.6.1-.7.7-.7.8,0,1.7,0,2.5,0Z"/>
        <path class="cls-1" d="M73,60.4c0-.8,0-1.6,0-2.4,0-.7,0-.8.8-.8.6,0,1.1,0,1.7,0,.9,0,1.8,0,2.7,0,.5,0,1.1,0,1.5.4,1.1.7,1.8,1.6,1.7,2.9,0,.7-.3,1.4-.8,2-.3.3-.6.6-.9.7-.5.3-1.1.4-1.6.4-1.5,0-2.9,0-4.4,0,0,0,0,0-.1,0-.3,0-.5-.2-.5-.5,0-.1,0-.3,0-.4,0-.8,0-1.6,0-2.3Z"/>
        <path class="cls-1" d="M27,60.4c0,.8,0,1.6,0,2.4,0,.1,0,.2,0,.3,0,.3-.1.4-.4.4,0,0-.2,0-.2,0-1.4,0-2.9,0-4.3,0-1.1,0-2.1-.4-2.8-1.4-.6-.8-.8-1.7-.5-2.7.3-1,1-1.7,2-2.1.6-.2,1.2-.3,1.8-.3.8,0,1.7,0,2.5,0,.4,0,.9,0,1.3,0,.5,0,.6.2.6.6,0,.9,0,1.8,0,2.6h0Z"/>
        <path class="cls-1" d="M36.4,75.9c0-.7,0-1.4,0-2.1,0-.1,0-.2,0-.3,0-.3.1-.4.4-.4.1,0,.2,0,.3,0,1.7,0,3.3,0,5,0,.1,0,.3,0,.4,0,.2,0,.3.1.3.4,0,0,0,.2,0,.3,0,1.4,0,2.9,0,4.3,0,.6-.1,1.2-.4,1.7-.7,1.1-1.7,1.8-3.1,1.7-.7,0-1.4-.3-1.9-.8-.2-.2-.3-.3-.5-.5-.5-.6-.6-1.3-.6-2,0-.7,0-1.4,0-2.1h0Z"/>
        <path class="cls-1" d="M60.5,73c.8,0,1.6,0,2.4,0,.1,0,.2,0,.3,0,.3,0,.5.1.5.5,0,.2,0,.5,0,.7,0,1.2,0,2.5,0,3.7,0,.8-.2,1.5-.6,2.2-.7,1-2.3,1.6-3.5,1.2-1-.4-1.7-1-2.1-2-.1-.3-.1-.7-.1-1,0-1.5,0-2.9,0-4.4,0-.1,0-.3,0-.4,0-.2.1-.3.4-.4.1,0,.3,0,.4,0,.8,0,1.6,0,2.4,0Z"/>
        <path class="cls-1" d="M73,50c0-.8,0-1.6,0-2.4,0-.1,0-.2,0-.3,0-.2.1-.3.4-.4,0,0,.2,0,.3,0,1.5,0,3,0,4.5,0,.9,0,1.6.3,2.3.9.8.7,1.3,2.2.6,3.5-.6,1.3-1.6,1.9-3,1.9-1.5,0-3,0-4.4,0-.6,0-.7-.1-.7-.7,0-.8,0-1.7,0-2.5Z"/>
        <path class="cls-1" d="M27,50c0,.8,0,1.6,0,2.4,0,0,0,.2,0,.3,0,.3-.1.4-.5.5,0,0-.2,0-.3,0-1.5,0-3,0-4.5,0-1.1,0-2.5-.8-3-2.2-.5-1.5.4-3.7,2.5-4.1.2,0,.3,0,.5,0,1.5,0,3,0,4.6,0,0,0,.1,0,.2,0,.4,0,.5.2.5.5,0,.9,0,1.8,0,2.6h0Z"/>
        <g>
          <path class="cls-1" d="M70.1,50.1c0,5.7,0,11.3,0,17,0,.3,0,.6,0,.9-.2,1.2-1.1,2-2.4,2.1-.6,0-1.2,0-1.8,0-.4,0-.5-.2-.5-.5,0-.1,0-.2,0-.3,0-1.9,0-3.8,0-5.7,0-1.2-.4-2.2-1.3-3.1-.4-.5-.9-.9-1.3-1.3-.4-.4-.5-.8-.5-1.3,0-1.1,0-2.1,0-3.2,0-.4.2-.6.5-.7,1.4-.6,2.3-1.7,2.6-3.2.2-1.1-.3-2.9-1.1-3.5-.1-.1-.3-.3-.4-.4-.7-.6-1.5-.9-2.4-1-.7,0-1.4,0-2.1.4-.7.3-1.3.8-1.7,1.5-.5.7-.8,1.5-.7,2.4,0,.9.3,1.8.9,2.5.5.6,1.1,1.1,1.8,1.4.4.1.5.4.5.7,0,1,0,1.9,0,2.9,0,.8.2,1.5.6,2.2.1.2.3.5.5.7.4.5.9.9,1.4,1.4.2.2.3.3.4.5.2.3.3.6.3.9,0,2.1,0,4.1,0,6.2,0,0,0,.2,0,.2,0,.2-.2.3-.4.4-.2,0-.3,0-.5,0-6,0-12,0-18,0-3.9,0-7.7,0-11.6,0-.6,0-1.1-.1-1.6-.5-.7-.5-1-1.1-1.1-2,0-.6,0-1.1,0-1.7,0-.5.1-.6.6-.6.7,0,1.5,0,2.2,0,1.8,0,3.5,0,5.3,0,1.2,0,2.2-.4,3.1-1.3.2-.2.5-.5.7-.7.4-.4.9-.6,1.5-.6.6,0,1.2,0,1.9,0,.8,0,1.6,0,2.4,0,.2,0,.4,0,.5,0,.3,0,.5.1.6.4,0,0,0,.1,0,.2.7,1.4,1.7,2.3,3.3,2.5,2,.3,3.6-.8,4.3-2.2.6-1.2.7-2.5,0-3.8-.6-1.3-1.7-2.1-3-2.3-1-.2-2.1,0-3,.6-.8.5-1.4,1.2-1.7,2.1-.1.3-.3.4-.7.4-1,0-1.9,0-2.9,0-.6,0-1.2,0-1.8,0-1.1,0-2.1.4-2.9,1.2-.3.3-.6.6-.9.8-.4.4-.9.6-1.5.6-2.4,0-4.9,0-7.3,0-.1,0-.3,0-.4,0-.2,0-.3-.1-.4-.4,0-.1,0-.2,0-.3,0-2,0-3.9,0-5.9,0-.6.1-.7.7-.7,4.9,0,9.8,0,14.7,0,.4,0,.9,0,1.3,0,.8,0,1.6-.3,2.3-.8.3-.3.6-.5.9-.8.6-.6,1.3-1.3,1.9-1.9.9-.9,1.4-2,1.4-3.3,0-.5,0-1,0-1.5,0-.6.2-1,.6-1.4.9-.9,1.8-1.9,2.8-2.8.5-.5,1-.7,1.7-.7,1.3,0,2.7,0,4,0,.2,0,.5,0,.7,0,1.1,0,2.2-.8,2.3-2.2,0-.1,0-.3,0-.4,0-3.1,0-6.1,0-9.2,0-.1,0-.3,0-.4,0-.3.2-.5.5-.5.5,0,1,0,1.5,0,.3,0,.7,0,1,.1.9.3,1.4.8,1.7,1.7,0,.3.1.7.1,1,0,5.7,0,11.4,0,17.2Z"/>
          <path class="cls-1" d="M38.7,53.7c-2.6,0-5.3,0-7.9,0-.1,0-.2,0-.4,0-.3,0-.4-.1-.4-.4,0-.1,0-.2,0-.3,0-1.9,0-3.9,0-5.8,0-.1,0-.2,0-.4,0-.2.2-.4.4-.4.1,0,.3,0,.4,0,1.3,0,2.5,0,3.8,0,.4,0,.7,0,1.1-.2.9-.3,1.2-1,1.4-1.9,0-.2,0-.3,0-.5,0-1.8,0-3.7,0-5.5,0-.1,0-.3,0-.4,0-.3.2-.4.4-.4.3,0,.5,0,.8,0,1.9,0,3.8,0,5.8,0,.3,0,.6,0,.8,0,.9-.3,1.4-.9,1.5-1.8,0-.2,0-.3,0-.5,0-1.4,0-2.7,0-4.1,0-.2,0-.4,0-.6,0-.3.2-.4.4-.4.1,0,.2,0,.4,0,1.9,0,3.8,0,5.7,0,.1,0,.2,0,.4,0,.3,0,.4.1.4.4,0,0,0,.2,0,.2,0,1.1,0,2.3,0,3.4,0,.5-.2.9-.5,1.2,0,.1-.2.2-.3.3-2.2,2.2-4.4,4.3-6.5,6.5-.4.4-.7.5-1.1.3-.9-.4-1.8-.4-2.7-.2-1.1.3-2,1-2.5,1.9-.9,1.6-.8,3.1.2,4.6.8,1.2,2,1.8,3.5,1.7,2,0,3.6-1.5,4-3.3.2-.8.2-1.7-.2-2.5-.2-.5-.2-.6.2-1,2.2-2.2,4.4-4.4,6.6-6.6.3-.3.6-.6.8-1,.4-.6.6-1.4.7-2.2,0-1.1,0-2.2,0-3.3,0-.7,0-.8.8-.8,1.9,0,3.9,0,5.8,0,.6,0,.7.1.7.8,0,3,0,6.1,0,9.1,0,.6-.1.7-.7.7-1.4,0-2.9,0-4.3,0-1.1,0-2.1.4-2.8,1.1-1.1,1-2.1,2-3.1,3.1-.7.8-1.1,1.7-1.1,2.7,0,.5,0,1,0,1.5,0,.7-.2,1.2-.6,1.7-.8.8-1.6,1.6-2.4,2.4-.4.4-.8.5-1.4.5-2.7,0-5.3,0-8,0h0Z"/>
          <path class="cls-1" d="M38.1,30c1.8,0,3.5,0,5.3,0,.1,0,.3,0,.4,0,.3,0,.4.1.4.4,0,0,0,.1,0,.2,0,1.3,0,2.6,0,3.9,0,.1,0,.3,0,.4,0,.2-.1.3-.4.3-.1,0-.2,0-.3,0-2.1,0-4.2,0-6.2,0-.3,0-.7,0-1,.2-.9.3-1.5,1.2-1.5,2.1,0,1.9,0,3.9,0,5.8,0,.1,0,.3,0,.4,0,.3-.2.4-.4.4-.1,0-.2,0-.3,0-1.1,0-2.2,0-3.4,0-.6,0-.7-.1-.7-.7,0-3.6,0-7.1,0-10.7,0-.5,0-1,.3-1.5.4-.8,1.2-1.2,2.1-1.3.2,0,.4,0,.6,0,1.7,0,3.4,0,5.1,0Z"/>
          <path class="cls-1" d="M43.7,44.3c1.2,0,2.1.9,2.1,2,0,1.2-.9,2.1-2.2,2.1-1,0-2.1-1-2.1-2.1,0-1.2.9-2.1,2.1-2.1Z"/>
          <path class="cls-1" d="M59.1,50.1c0-1.3,1-2.1,2.1-2.1,1.2,0,2.1,1.1,2.1,2.1,0,1.1-.9,2.1-2.1,2.1-1.1,0-2.1-.8-2.1-2.1Z"/>
          <path class="cls-1" d="M52.7,59.6c1.3,0,2.1.9,2.1,2.1,0,1.1-1,2.1-2.1,2.1-1.1,0-2.1-1-2.1-2.1,0-1.2,1-2.2,2.1-2.1Z"/>
        </g>
      </g>
    </g>
  </g>
  <g id="Ebene_11" data-name="Ebene 11" class="cls-4">
    <g>
      <g>
        <path class="cls-1" d="M100,58.2c0,4.9,0,9.9,0,14.8,0,.9-.3,1.8-1.2,2.2-1.5.7-2.9-.3-2.9-2,0-2.4,0-4.8,0-7.3,0-.3,0-.7,0-1,0-.6-.4-1-1.1-1.1-.3,0-.6,0-.9,0-2.5,0-5,0-7.4,0-.1,0-.3,0-.4,0-1,0-1.3.4-1.5,1.4,0,.3,0,.6,0,.9,0,2.5,0,4.9,0,7.4,0,1-.7,1.9-1.6,2-1,.2-2-.3-2.3-1.3-.1-.4-.2-.9-.2-1.3,0-2.4,0-4.8,0-7.3,0-.1,0-.2,0-.3,0-.3,0-.7-.5-.8-.4-.1-.7,0-.9.3-.4.6-.8,1.2-1,1.9-.7,2-1.1,4.1-1.5,6.1-.4,1.8-1.4,3.2-3.2,3.5-1.4.2-2.9-.3-3.7-1.6-.4-.6-.5-1.3-.5-1.9,0-1.6.3-3.2.7-4.7.5-2.1,1-4.1,1.4-6.2.1-.6.3-1.1.5-1.7.4-1,1.1-1.6,2.1-2,2-.9,4.1-1.8,6.1-2.7,1.1-.5,1.4-.9,1.3-2.1,0-.5,0-1,0-1.5,0-.7-.5-1.1-1.2-1.1-1.2,0-2.5.2-3.7.4-1.5.2-3.1.6-4.6.8-2.2.4-4.2-1.3-4.2-3.5,0-1.4.7-3,2.7-3.6.8-.3,1.7-.4,2.6-.5,2.1-.4,4.1-1.1,6.1-1.7,1-.3,1.7-.8,2.2-1.7.9-1.5,2.1-2.8,3.9-3.5,2.5-.9,5.6-.4,7.4,1.7.9,1.1,1.2,2.4,1.2,3.8,0,4.1,0,8.2,0,12.2,0,1,0,2,0,3,0,.3,0,.5,0,.8.1.6.6.9,1.1.9.6,0,1.1-.4,1.2-1,0-.3,0-.7,0-1,0-4.8,0-9.6,0-14.5,0-1.1.7-2,1.6-2.2,1.3-.2,2.4.8,2.4,2.1,0,1.5,0,3,0,4.5,0,3.5,0,7,0,10.5h0Z"/>
        <path class="cls-1" d="M0,58.2c0-5,0-9.9,0-14.9,0-1.1.7-2.1,1.6-2.2,1.3-.3,2.4.7,2.4,2,0,.7,0,1.5,0,2.2,0,4.1,0,8.3,0,12.4,0,.3,0,.7,0,1,.1.6.6,1,1.1,1,.5,0,1-.4,1.1-.9,0-.2,0-.4,0-.6,0-5,0-9.9,0-14.9,0-.8,0-1.6.2-2.3.4-1.9,2.4-3.6,4.4-3.9,1.7-.3,3.4-.1,4.9.7,1.1.6,2,1.6,2.7,2.7.7,1.1,1.5,1.8,2.8,2.2,2,.6,4,1.3,6.1,1.7.8.1,1.7.3,2.5.6,2.1.8,3,3.1,1.9,5.2-.7,1.3-2.2,2.1-3.7,1.9-1.5-.3-3.1-.6-4.6-.8-1.2-.2-2.3-.3-3.5-.4-1,0-1.4.4-1.4,1.4,0,.6,0,1.1,0,1.7,0,.7.4,1.2,1,1.5,1.9.8,3.7,1.7,5.6,2.4,2,.7,3.1,2,3.4,4.1.3,1.6.8,3.2,1.1,4.8.4,1.7.7,3.4.9,5.2.1.7.1,1.5,0,2.2-.4,1.3-1.4,2-2.7,2.3-2.3.4-4.1-1.1-4.5-3.4-.5-2.3-.9-4.6-1.8-6.8-.2-.4-.4-.8-.7-1.2-.2-.3-.5-.5-.9-.4-.4.2-.5.5-.5.9,0,2.5,0,5,0,7.5,0,.3,0,.7-.1,1-.2,1-1.2,1.7-2.2,1.6-1-.1-1.8-.9-1.8-2.1,0-2.5,0-4.9,0-7.4,0-.4,0-.7,0-1.1-.1-.6-.5-1-1.1-1.1-.2,0-.5,0-.7,0-2.5,0-5,0-7.5,0-1.5,0-2,.4-2,2,0,2.4,0,4.9,0,7.3,0,.3,0,.6,0,.8-.2,1-1,1.6-2,1.5-1,0-1.8-.7-1.9-1.7,0-.4,0-.8,0-1.2,0-4.8,0-9.6,0-14.3h0Z"/>
        <path class="cls-1" d="M75.7,53.8c-.4-.5-.9-.6-1.5-.6-.9,0-1.7,0-2.6,0s-2.1,0-3.2,0c-2.1,0-4.2,0-6.3,0-8.6,0-17.1,0-25.7,0-2.3,0-4.5,0-6.8,0-1.3,0-2.6,0-3.9,0-.2,0-.4,0-.6,0-.7.1-1.2.7-1.1,1.4,0,.6.5,1,1.3,1,1.7,0,3.4,0,5.1,0,.2,0,.4,0,.5,0,.7.1,1,.6,1,1.6,0,4.1,0,8.2,0,12.3,0,.9,0,1.8,0,2.8,0,0,0,.2,0,.2.2.8.8,1.1,1.8,1.1h32.1c1.2,0,1.8-.6,1.8-1.7,0-1.7.1-3.4.1-5.1,0-2,0-3.9,0-5.9s0-2.7,0-4c0-.9.5-1.3,1.4-1.3,1.3,0,2.5,0,3.8,0,.6,0,1.3,0,1.9-.2.9-.2,1.2-1.2.6-1.8ZM62.5,63.9c-.1.7-.7,1.4-1.5,1.4-1.2,0-17.8,0-21.2,0s-.7,0-1,0c-.7-.1-1.3-.7-1.4-1.4-.1-.7.1-1.4.8-1.7.5-.2,1-.4,1.6-.4,1.3,0,19.5,0,20.8,0,.4,0,.7.2,1,.3.7.4,1,1,.9,1.7Z"/>
        <path class="cls-1" d="M50,43.7c-3.4,0-6-3.1-5.9-6,0-3.3,2.7-5.9,6-5.9,3.1,0,6,2.7,5.9,6.1,0,2.9-2.5,5.8-6,5.8Z"/>
        <path class="cls-1" d="M13.1,35.3c-3.3,0-5.8-2.5-5.8-5.9,0-3.4,2.8-5.7,5.8-5.7,3.2,0,5.8,2.8,5.8,5.8,0,3.1-2.6,5.8-5.8,5.8Z"/>
        <path class="cls-1" d="M86.9,35.3c-3.1,0-5.8-2.7-5.8-5.8,0-3,2.6-5.8,5.8-5.8,3,0,5.8,2.3,5.8,5.7,0,3.4-2.5,5.8-5.8,5.8Z"/>
        <path class="cls-1" d="M50,51.3c-2.6,0-5.1,0-7.7,0-.6,0-1.1,0-1.7,0-.7,0-.9-.3-.6-1,.6-1.2,1.4-2.2,2.5-2.9.9-.6,1.9-1.1,2.9-1.6.6-.3,1.3-.2,1.9,0,1.4.5,2.9.6,4.4.3,0,0,.2,0,.3,0,1.3-.6,2.5-.4,3.8.3,1.8.9,3.3,2.1,4.2,3.9,0,0,0,.1.1.2.2.5,0,.8-.5.8-.6,0-1.2,0-1.8,0-2.6,0-5.2,0-7.7,0Z"/>
      </g>
      <g>
        <path class="cls-1" d="M100,58.2c0,4.9,0,9.9,0,14.8,0,.9-.3,1.8-1.2,2.2-1.5.7-2.9-.3-2.9-2,0-2.4,0-4.8,0-7.3,0-.3,0-.7,0-1,0-.6-.4-1-1.1-1.1-.3,0-.6,0-.9,0-2.5,0-5,0-7.4,0-.1,0-.3,0-.4,0-1,0-1.3.4-1.5,1.4,0,.3,0,.6,0,.9,0,2.5,0,4.9,0,7.4,0,1-.7,1.9-1.6,2-1,.2-2-.3-2.3-1.3-.1-.4-.2-.9-.2-1.3,0-2.4,0-4.8,0-7.3,0-.1,0-.2,0-.3,0-.3,0-.7-.5-.8-.4-.1-.7,0-.9.3-.4.6-.8,1.2-1,1.9-.7,2-1.1,4.1-1.5,6.1-.4,1.8-1.4,3.2-3.2,3.5-1.4.2-2.9-.3-3.7-1.6-.4-.6-.5-1.3-.5-1.9,0-1.6.3-3.2.7-4.7.5-2.1,1-4.1,1.4-6.2.1-.6.3-1.1.5-1.7.4-1,1.1-1.6,2.1-2,2-.9,4.1-1.8,6.1-2.7,1.1-.5,1.4-.9,1.3-2.1,0-.5,0-1,0-1.5,0-.7-.5-1.1-1.2-1.1-1.2,0-2.5.2-3.7.4-1.5.2-3.1.6-4.6.8-2.2.4-4.2-1.3-4.2-3.5,0-1.4.7-3,2.7-3.6.8-.3,1.7-.4,2.6-.5,2.1-.4,4.1-1.1,6.1-1.7,1-.3,1.7-.8,2.2-1.7.9-1.5,2.1-2.8,3.9-3.5,2.5-.9,5.6-.4,7.4,1.7.9,1.1,1.2,2.4,1.2,3.8,0,4.1,0,8.2,0,12.2,0,1,0,2,0,3,0,.3,0,.5,0,.8.1.6.6.9,1.1.9.6,0,1.1-.4,1.2-1,0-.3,0-.7,0-1,0-4.8,0-9.6,0-14.5,0-1.1.7-2,1.6-2.2,1.3-.2,2.4.8,2.4,2.1,0,1.5,0,3,0,4.5,0,3.5,0,7,0,10.5h0Z"/>
        <path class="cls-1" d="M0,58.2c0-5,0-9.9,0-14.9,0-1.1.7-2.1,1.6-2.2,1.3-.3,2.4.7,2.4,2,0,.7,0,1.5,0,2.2,0,4.1,0,8.3,0,12.4,0,.3,0,.7,0,1,.1.6.6,1,1.1,1,.5,0,1-.4,1.1-.9,0-.2,0-.4,0-.6,0-5,0-9.9,0-14.9,0-.8,0-1.6.2-2.3.4-1.9,2.4-3.6,4.4-3.9,1.7-.3,3.4-.1,4.9.7,1.1.6,2,1.6,2.7,2.7.7,1.1,1.5,1.8,2.8,2.2,2,.6,4,1.3,6.1,1.7.8.1,1.7.3,2.5.6,2.1.8,3,3.1,1.9,5.2-.7,1.3-2.2,2.1-3.7,1.9-1.5-.3-3.1-.6-4.6-.8-1.2-.2-2.3-.3-3.5-.4-1,0-1.4.4-1.4,1.4,0,.6,0,1.1,0,1.7,0,.7.4,1.2,1,1.5,1.9.8,3.7,1.7,5.6,2.4,2,.7,3.1,2,3.4,4.1.3,1.6.8,3.2,1.1,4.8.4,1.7.7,3.4.9,5.2.1.7.1,1.5,0,2.2-.4,1.3-1.4,2-2.7,2.3-2.3.4-4.1-1.1-4.5-3.4-.5-2.3-.9-4.6-1.8-6.8-.2-.4-.4-.8-.7-1.2-.2-.3-.5-.5-.9-.4-.4.2-.5.5-.5.9,0,2.5,0,5,0,7.5,0,.3,0,.7-.1,1-.2,1-1.2,1.7-2.2,1.6-1-.1-1.8-.9-1.8-2.1,0-2.5,0-4.9,0-7.4,0-.4,0-.7,0-1.1-.1-.6-.5-1-1.1-1.1-.2,0-.5,0-.7,0-2.5,0-5,0-7.5,0-1.5,0-2,.4-2,2,0,2.4,0,4.9,0,7.3,0,.3,0,.6,0,.8-.2,1-1,1.6-2,1.5-1,0-1.8-.7-1.9-1.7,0-.4,0-.8,0-1.2,0-4.8,0-9.6,0-14.3h0Z"/>
        <path class="cls-1" d="M75.7,53.8c-.4-.5-.9-.6-1.5-.6-.9,0-1.7,0-2.6,0s-2.1,0-3.2,0c-2.1,0-4.2,0-6.3,0-8.6,0-17.1,0-25.7,0-2.3,0-4.5,0-6.8,0-1.3,0-2.6,0-3.9,0-.2,0-.4,0-.6,0-.7.1-1.2.7-1.1,1.4,0,.6.5,1,1.3,1,1.7,0,3.4,0,5.1,0,.2,0,.4,0,.5,0,.7.1,1,.6,1,1.6,0,4.1,0,8.2,0,12.3,0,.9,0,1.8,0,2.8,0,0,0,.2,0,.2.2.8.8,1.1,1.8,1.1h32.1c1.2,0,1.8-.6,1.8-1.7,0-1.7.1-3.4.1-5.1,0-2,0-3.9,0-5.9s0-2.7,0-4c0-.9.5-1.3,1.4-1.3,1.3,0,2.5,0,3.8,0,.6,0,1.3,0,1.9-.2.9-.2,1.2-1.2.6-1.8ZM62.5,63.9c-.1.7-.7,1.4-1.5,1.4-1.2,0-17.8,0-21.2,0s-.7,0-1,0c-.7-.1-1.3-.7-1.4-1.4-.1-.7.1-1.4.8-1.7.5-.2,1-.4,1.6-.4,1.3,0,19.5,0,20.8,0,.4,0,.7.2,1,.3.7.4,1,1,.9,1.7Z"/>
        <path class="cls-1" d="M50,43.7c-3.4,0-6-3.1-5.9-6,0-3.3,2.7-5.9,6-5.9,3.1,0,6,2.7,5.9,6.1,0,2.9-2.5,5.8-6,5.8Z"/>
        <path class="cls-1" d="M13.1,35.3c-3.3,0-5.8-2.5-5.8-5.9,0-3.4,2.8-5.7,5.8-5.7,3.2,0,5.8,2.8,5.8,5.8,0,3.1-2.6,5.8-5.8,5.8Z"/>
        <path class="cls-1" d="M86.9,35.3c-3.1,0-5.8-2.7-5.8-5.8,0-3,2.6-5.8,5.8-5.8,3,0,5.8,2.3,5.8,5.7,0,3.4-2.5,5.8-5.8,5.8Z"/>
        <path class="cls-1" d="M50,51.3c-2.6,0-5.1,0-7.7,0-.6,0-1.1,0-1.7,0-.7,0-.9-.3-.6-1,.6-1.2,1.4-2.2,2.5-2.9.9-.6,1.9-1.1,2.9-1.6.6-.3,1.3-.2,1.9,0,1.4.5,2.9.6,4.4.3,0,0,.2,0,.3,0,1.3-.6,2.5-.4,3.8.3,1.8.9,3.3,2.1,4.2,3.9,0,0,0,.1.1.2.2.5,0,.8-.5.8-.6,0-1.2,0-1.8,0-2.6,0-5.2,0-7.7,0Z"/>
      </g>
    </g>
  </g>
  <g id="Ebene_10" data-name="Ebene 10" class="cls-4">
    <g>
      <g>
        <g>
          <g>
            <circle class="cls-2" cx="50" cy="26.8" r="8"/>
            <path class="cls-2" d="M59.4,36c-2.4,2.4-5.7,4-9.4,4s-7-1.5-9.4-4c-2.4,2.4-3.8,5.7-3.8,9.3v1.3c0,3.7,3,6.6,6.6,6.6h13.3c3.7,0,6.6-3,6.6-6.6v-1.3c0-3.6-1.5-6.9-3.8-9.3Z"/>
          </g>
          <g>
            <circle class="cls-2" cx="27.3" cy="54.7" r="8"/>
            <path class="cls-2" d="M36.7,64c-2.4,2.4-5.7,4-9.4,4s-7-1.5-9.4-4c-2.4,2.4-3.8,5.7-3.8,9.3v1.3c0,3.7,3,6.6,6.6,6.6h13.3c3.7,0,6.6-3,6.6-6.6v-1.3c0-3.6-1.5-6.9-3.8-9.3Z"/>
          </g>
          <g>
            <circle class="cls-2" cx="72.7" cy="54.7" r="8"/>
            <path class="cls-2" d="M82.2,64c-2.4,2.4-5.7,4-9.4,4s-7-1.5-9.4-4c-2.4,2.4-3.8,5.7-3.8,9.3v1.3c0,3.7,3,6.6,6.6,6.6h13.3c3.7,0,6.6-3,6.6-6.6v-1.3c0-3.6-1.5-6.9-3.8-9.3Z"/>
          </g>
        </g>
        <path class="cls-2" d="M50,70.9c-3,0-5.8-.6-8.4-1.7.2.9.2,1.8.3,2.6,0,.7,0,1.3,0,1.9v.6c0,.2,0,.4,0,.5v.2c2.5.8,5.2,1.3,8.1,1.3s5.5-.4,8.1-1.3v-1.3c0-.8,0-1.6,0-2.3,0-.8,0-1.5.2-2.1-2.6,1.1-5.4,1.7-8.3,1.7ZM59.4,25.3c0,.3,0,.6,0,.9,0,1.6-.4,3-1.1,4.4,6,2.6,10.6,7.9,12.1,14.4.7-.2,1.5-.3,2.3-.3,1.1,0,2.2.2,3.2.6-1.6-9.2-8.1-16.8-16.6-20ZM40.6,26.2c0-.3,0-.6,0-.9-8.5,3.2-14.9,10.8-16.6,20,1-.4,2.1-.6,3.2-.6h0c.8,0,1.6,0,2.3.3,1.6-6.5,6.1-11.8,12.1-14.4-.7-1.3-1.1-2.8-1.1-4.4Z"/>
      </g>
      <g>
        <g>
          <g>
            <circle class="cls-1" cx="50" cy="26.8" r="8"/>
            <path class="cls-1" d="M59.4,36c-2.4,2.4-5.7,4-9.4,4s-7-1.5-9.4-4c-2.4,2.4-3.8,5.7-3.8,9.3v1.3c0,3.7,3,6.6,6.6,6.6h13.3c3.7,0,6.6-3,6.6-6.6v-1.3c0-3.6-1.5-6.9-3.8-9.3Z"/>
          </g>
          <g>
            <circle class="cls-1" cx="27.3" cy="54.7" r="8"/>
            <path class="cls-1" d="M36.7,64c-2.4,2.4-5.7,4-9.4,4s-7-1.5-9.4-4c-2.4,2.4-3.8,5.7-3.8,9.3v1.3c0,3.7,3,6.6,6.6,6.6h13.3c3.7,0,6.6-3,6.6-6.6v-1.3c0-3.6-1.5-6.9-3.8-9.3Z"/>
          </g>
          <g>
            <circle class="cls-1" cx="72.7" cy="54.7" r="8"/>
            <path class="cls-1" d="M82.2,64c-2.4,2.4-5.7,4-9.4,4s-7-1.5-9.4-4c-2.4,2.4-3.8,5.7-3.8,9.3v1.3c0,3.7,3,6.6,6.6,6.6h13.3c3.7,0,6.6-3,6.6-6.6v-1.3c0-3.6-1.5-6.9-3.8-9.3Z"/>
          </g>
        </g>
        <path class="cls-1" d="M50,70.9c-3,0-5.8-.6-8.4-1.7.2.9.2,1.8.3,2.6,0,.7,0,1.3,0,1.9v.6c0,.2,0,.4,0,.5v.2c2.5.8,5.2,1.3,8.1,1.3s5.5-.4,8.1-1.3v-1.3c0-.8,0-1.6,0-2.3,0-.8,0-1.5.2-2.1-2.6,1.1-5.4,1.7-8.3,1.7ZM59.4,25.3c0,.3,0,.6,0,.9,0,1.6-.4,3-1.1,4.4,6,2.6,10.6,7.9,12.1,14.4.7-.2,1.5-.3,2.3-.3,1.1,0,2.2.2,3.2.6-1.6-9.2-8.1-16.8-16.6-20ZM40.6,26.2c0-.3,0-.6,0-.9-8.5,3.2-14.9,10.8-16.6,20,1-.4,2.1-.6,3.2-.6h0c.8,0,1.6,0,2.3.3,1.6-6.5,6.1-11.8,12.1-14.4-.7-1.3-1.1-2.8-1.1-4.4Z"/>
      </g>
    </g>
  </g>
  <g id="Ebene_9" data-name="Ebene 9" class="cls-4">
    <g>
      <g>
        <g>
          <g>
            <circle class="cls-2" cx="67.3" cy="55.4" r="8"/>
            <path class="cls-2" d="M76.8,64.6c-2.4,2.4-5.7,4-9.4,4s-7-1.5-9.4-4c-2.4,2.4-3.8,5.7-3.8,9.3v1.3c0,3.7,3,6.6,6.6,6.6h13.3c3.7,0,6.6-3,6.6-6.6v-1.3c0-3.6-1.5-6.9-3.8-9.3Z"/>
          </g>
          <g>
            <circle class="cls-2" cx="32.7" cy="55.4" r="8"/>
            <path class="cls-2" d="M42.1,64.6c-2.4,2.4-5.7,4-9.4,4s-7-1.5-9.4-4c-2.4,2.4-3.8,5.7-3.8,9.3v1.3c0,3.7,3,6.6,6.6,6.6h13.3c3.7,0,6.6-3,6.6-6.6v-1.3c0-3.6-1.5-6.9-3.8-9.3Z"/>
          </g>
        </g>
        <path class="cls-2" d="M72.8,18.1H27.2c-3.7,0-6.6,3-6.6,6.6v13.5c0,3.6,3,6.6,6.6,6.6h13.3l5.3,6.5c2.2,2.7,6.2,2.7,8.4,0l5.3-6.5h13.3c3.6,0,6.6-3,6.6-6.6v-13.5c0-3.6-3-6.6-6.6-6.6ZM38.6,34.5c-1.7,0-3.1-1.4-3.1-3.1s1.4-3.1,3.1-3.1,3.1,1.4,3.1,3.1-1.4,3.1-3.1,3.1ZM50,34.5c-1.7,0-3.1-1.4-3.1-3.1s1.4-3.1,3.1-3.1,3.1,1.4,3.1,3.1-1.4,3.1-3.1,3.1ZM61.4,34.5c-1.7,0-3.1-1.4-3.1-3.1s1.4-3.1,3.1-3.1,3.1,1.4,3.1,3.1-1.4,3.1-3.1,3.1Z"/>
      </g>
      <g>
        <g>
          <g>
            <circle class="cls-1" cx="67.3" cy="55.4" r="8"/>
            <path class="cls-1" d="M76.8,64.6c-2.4,2.4-5.7,4-9.4,4s-7-1.5-9.4-4c-2.4,2.4-3.8,5.7-3.8,9.3v1.3c0,3.7,3,6.6,6.6,6.6h13.3c3.7,0,6.6-3,6.6-6.6v-1.3c0-3.6-1.5-6.9-3.8-9.3Z"/>
          </g>
          <g>
            <circle class="cls-1" cx="32.7" cy="55.4" r="8"/>
            <path class="cls-1" d="M42.1,64.6c-2.4,2.4-5.7,4-9.4,4s-7-1.5-9.4-4c-2.4,2.4-3.8,5.7-3.8,9.3v1.3c0,3.7,3,6.6,6.6,6.6h13.3c3.7,0,6.6-3,6.6-6.6v-1.3c0-3.6-1.5-6.9-3.8-9.3Z"/>
          </g>
        </g>
        <path class="cls-1" d="M72.8,18.1H27.2c-3.7,0-6.6,3-6.6,6.6v13.5c0,3.6,3,6.6,6.6,6.6h13.3l5.3,6.5c2.2,2.7,6.2,2.7,8.4,0l5.3-6.5h13.3c3.6,0,6.6-3,6.6-6.6v-13.5c0-3.6-3-6.6-6.6-6.6ZM38.6,34.5c-1.7,0-3.1-1.4-3.1-3.1s1.4-3.1,3.1-3.1,3.1,1.4,3.1,3.1-1.4,3.1-3.1,3.1ZM50,34.5c-1.7,0-3.1-1.4-3.1-3.1s1.4-3.1,3.1-3.1,3.1,1.4,3.1,3.1-1.4,3.1-3.1,3.1ZM61.4,34.5c-1.7,0-3.1-1.4-3.1-3.1s1.4-3.1,3.1-3.1,3.1,1.4,3.1,3.1-1.4,3.1-3.1,3.1Z"/>
      </g>
    </g>
  </g>
  <g id="Ebene_8" data-name="Ebene 8" class="cls-4">
    <g>
      <g>
        <path class="cls-3" d="M63.9,40.7c0,1.9-1.2,3.7-2.9,4.5l-3.9,1.8v2.5h0c0,.8-.5,1.6-1.2,2l-8.7,4.3c.8.6,1.8,1.1,2.7,1.6,1.7.8,3.4,1.3,5.2,1.5.7.1,1.3.5,1.7,1.2.3.6.3,1.4,0,2l-2.5,4.9c1.1,3.3,1,6-.4,8-1.2,1.8-3.4,3-6.3,3.5-.9.2-1.9.2-2.9.2-5,0-10.7-1.8-14.6-4.9-9.1-7-9.8-20.8-6.6-30.7,4.8-14.7,19-20.4,21.8-21.5,1-.4,2.2,0,2.7,1.1,1.3,2.6,2.9,5,4.9,7.2,2.3,2.5,5.1,4.6,8.2,6.2,1.7.9,2.7,2.6,2.7,4.6Z"/>
        <path class="cls-3" d="M65.3,48.5c-.8-.8-2.3-.8-3.1,0s-.8,2.3,0,3.1c3.7,3.7,3.7,9.8,0,13.5-.8.8-.8,2.3,0,3.1.4.4,1,.6,1.6.6s1.1-.2,1.6-.6c5.4-5.4,5.4-14.3,0-19.7Z"/>
        <path class="cls-3" d="M71.5,42.3c-.8-.8-2.3-.8-3.1,0s-.8,2.3,0,3.1c3.5,3.5,5.4,8.1,5.4,12.9s-1.9,9.5-5.4,12.9c-.8.8-.8,2.3,0,3.1.4.4,1,.6,1.6.6s1.1-.2,1.6-.6c4.3-4.3,6.6-10,6.6-16s-2.4-11.8-6.6-16Z"/>
      </g>
      <g>
        <path class="cls-1" d="M63.9,40.7c0,1.9-1.2,3.7-2.9,4.5l-3.9,1.8v2.5h0c0,.8-.5,1.6-1.2,2l-8.7,4.3c.8.6,1.8,1.1,2.7,1.6,1.7.8,3.4,1.3,5.2,1.5.7.1,1.3.5,1.7,1.2.3.6.3,1.4,0,2l-2.5,4.9c1.1,3.3,1,6-.4,8-1.2,1.8-3.4,3-6.3,3.5-.9.2-1.9.2-2.9.2-5,0-10.7-1.8-14.6-4.9-9.1-7-9.8-20.8-6.6-30.7,4.8-14.7,19-20.4,21.8-21.5,1-.4,2.2,0,2.7,1.1,1.3,2.6,2.9,5,4.9,7.2,2.3,2.5,5.1,4.6,8.2,6.2,1.7.9,2.7,2.6,2.7,4.6Z"/>
        <path class="cls-1" d="M65.3,48.5c-.8-.8-2.3-.8-3.1,0s-.8,2.3,0,3.1c3.7,3.7,3.7,9.8,0,13.5-.8.8-.8,2.3,0,3.1.4.4,1,.6,1.6.6s1.1-.2,1.6-.6c5.4-5.4,5.4-14.3,0-19.7Z"/>
        <path class="cls-1" d="M71.5,42.3c-.8-.8-2.3-.8-3.1,0s-.8,2.3,0,3.1c3.5,3.5,5.4,8.1,5.4,12.9s-1.9,9.5-5.4,12.9c-.8.8-.8,2.3,0,3.1.4.4,1,.6,1.6.6s1.1-.2,1.6-.6c4.3-4.3,6.6-10,6.6-16s-2.4-11.8-6.6-16Z"/>
      </g>
    </g>
  </g>
  <g id="Ebene_7" data-name="Ebene 7">
    <g>
      <g>
        <path class="cls-1" d="M47,37.9c.8,0,1.5.7,1.5,1.5v6.1h3v-9.8l-7.6-5.1-7.6,5.1v9.8h3v-6.1c0-.8.7-1.5,1.5-1.5h6.1Z"/>
        <path class="cls-1" d="M63.6,74.2V25.8c0-2.5-2-4.6-4.5-4.6h-30.3c-2.5,0-4.5,2-4.5,4.6v48.5c0,2.5,2,4.6,4.5,4.6h36.4c-1-1.3-1.5-2.8-1.5-4.6ZM30.3,27.3c.8,0,1.5.7,1.5,1.5s-.7,1.5-1.5,1.5-1.5-.7-1.5-1.5.7-1.5,1.5-1.5ZM33.3,72.7h-3c-.8,0-1.5-.7-1.5-1.5s.7-1.5,1.5-1.5h3c.8,0,1.5.7,1.5,1.5s-.7,1.5-1.5,1.5ZM33.3,66.7h-3c-.8,0-1.5-.7-1.5-1.5s.7-1.5,1.5-1.5h3c.8,0,1.5.7,1.5,1.5s-.7,1.5-1.5,1.5ZM33.3,60.6h-3c-.8,0-1.5-.7-1.5-1.5s.7-1.5,1.5-1.5h3c.8,0,1.5.7,1.5,1.5s-.7,1.5-1.5,1.5ZM33.3,54.5h-3c-.8,0-1.5-.7-1.5-1.5s.7-1.5,1.5-1.5h3c.8,0,1.5.7,1.5,1.5s-.7,1.5-1.5,1.5ZM33.3,47v-12.1c0-.5.3-1,.7-1.3l9.1-6.1c.5-.4,1.2-.4,1.7,0l9.1,6.1c.4.3.7.8.7,1.3v12.1c0,.8-.7,1.5-1.5,1.5h-18.2c-.8,0-1.5-.7-1.5-1.5ZM57.6,72.7h-18.2c-.8,0-1.5-.7-1.5-1.5s.7-1.5,1.5-1.5h18.2c.8,0,1.5.7,1.5,1.5s-.7,1.5-1.5,1.5ZM57.6,66.7h-18.2c-.8,0-1.5-.7-1.5-1.5s.7-1.5,1.5-1.5h18.2c.8,0,1.5.7,1.5,1.5s-.7,1.5-1.5,1.5ZM57.6,60.6h-18.2c-.8,0-1.5-.7-1.5-1.5s.7-1.5,1.5-1.5h18.2c.8,0,1.5.7,1.5,1.5s-.7,1.5-1.5,1.5ZM57.6,54.5h-18.2c-.8,0-1.5-.7-1.5-1.5s.7-1.5,1.5-1.5h18.2c.8,0,1.5.7,1.5,1.5s-.7,1.5-1.5,1.5ZM57.6,30.3c-.8,0-1.5-.7-1.5-1.5s.7-1.5,1.5-1.5,1.5.7,1.5,1.5-.7,1.5-1.5,1.5Z"/>
        <rect class="cls-1" x="42.4" y="40.9" width="3" height="4.5"/>
        <path class="cls-1" d="M66.7,54.5v19.7c0,2.5,2,4.5,4.5,4.5s4.5-2,4.5-4.5v-19.7h-9.1Z"/>
      </g>
      <g>
        <path class="cls-1" d="M47,37.9c.8,0,1.5.7,1.5,1.5v6.1h3v-9.8l-7.6-5.1-7.6,5.1v9.8h3v-6.1c0-.8.7-1.5,1.5-1.5h6.1Z"/>
        <path class="cls-1" d="M63.6,74.2V25.8c0-2.5-2-4.6-4.5-4.6h-30.3c-2.5,0-4.5,2-4.5,4.6v48.5c0,2.5,2,4.6,4.5,4.6h36.4c-1-1.3-1.5-2.8-1.5-4.6ZM30.3,27.3c.8,0,1.5.7,1.5,1.5s-.7,1.5-1.5,1.5-1.5-.7-1.5-1.5.7-1.5,1.5-1.5ZM33.3,72.7h-3c-.8,0-1.5-.7-1.5-1.5s.7-1.5,1.5-1.5h3c.8,0,1.5.7,1.5,1.5s-.7,1.5-1.5,1.5ZM33.3,66.7h-3c-.8,0-1.5-.7-1.5-1.5s.7-1.5,1.5-1.5h3c.8,0,1.5.7,1.5,1.5s-.7,1.5-1.5,1.5ZM33.3,60.6h-3c-.8,0-1.5-.7-1.5-1.5s.7-1.5,1.5-1.5h3c.8,0,1.5.7,1.5,1.5s-.7,1.5-1.5,1.5ZM33.3,54.5h-3c-.8,0-1.5-.7-1.5-1.5s.7-1.5,1.5-1.5h3c.8,0,1.5.7,1.5,1.5s-.7,1.5-1.5,1.5ZM33.3,47v-12.1c0-.5.3-1,.7-1.3l9.1-6.1c.5-.4,1.2-.4,1.7,0l9.1,6.1c.4.3.7.8.7,1.3v12.1c0,.8-.7,1.5-1.5,1.5h-18.2c-.8,0-1.5-.7-1.5-1.5ZM57.6,72.7h-18.2c-.8,0-1.5-.7-1.5-1.5s.7-1.5,1.5-1.5h18.2c.8,0,1.5.7,1.5,1.5s-.7,1.5-1.5,1.5ZM57.6,66.7h-18.2c-.8,0-1.5-.7-1.5-1.5s.7-1.5,1.5-1.5h18.2c.8,0,1.5.7,1.5,1.5s-.7,1.5-1.5,1.5ZM57.6,60.6h-18.2c-.8,0-1.5-.7-1.5-1.5s.7-1.5,1.5-1.5h18.2c.8,0,1.5.7,1.5,1.5s-.7,1.5-1.5,1.5ZM57.6,54.5h-18.2c-.8,0-1.5-.7-1.5-1.5s.7-1.5,1.5-1.5h18.2c.8,0,1.5.7,1.5,1.5s-.7,1.5-1.5,1.5ZM57.6,30.3c-.8,0-1.5-.7-1.5-1.5s.7-1.5,1.5-1.5,1.5.7,1.5,1.5-.7,1.5-1.5,1.5Z"/>
        <rect class="cls-1" x="42.4" y="40.9" width="3" height="4.5"/>
        <path class="cls-1" d="M66.7,54.5v19.7c0,2.5,2,4.5,4.5,4.5s4.5-2,4.5-4.5v-19.7h-9.1Z"/>
      </g>
    </g>
  </g>
  <g id="Ebene_6" data-name="Ebene 6" class="cls-4">
    <g>
      <g>
        <path class="cls-2" d="M74.4,59.1c0,1-.4,2-1.2,2.8-.9.9-2.1,1.3-3.3,1.1s-1.3.5-1.2,1.2,0,.3,0,.4c0,1-.4,2-1.2,2.8-1.6,1.5-4.1,1.5-5.6,0l-1-1c.8.8,1.2,1.8,1.2,2.8s-.4,2-1.2,2.8c-1.6,1.5-4.1,1.5-5.6,0l-.5-.5c.3.5.4,1.1.4,1.7,0,1-.4,2-1.2,2.8-1.6,1.5-4.1,1.5-5.6,0l-1.6-1.6c-.2-.2-.4-.6-.3-.9.3-2.2-.5-4.5-2.1-6.2-.9-.9-1.9-1.5-3-1.9s-.6-.4-.7-.7c-.4-1.1-1-2.2-1.8-3.1-.8-.8-1.8-1.4-2.9-1.8s-.6-.4-.7-.7c-.3-1.1-1-2.2-1.8-3,0,0,0,0,0,0,0,0,0,0,0,0,0,0,0,0,0,0-.9-.9-1.9-1.5-3-1.8s-.6-.4-.7-.7c-.3-1.1-.9-2.1-1.7-2.9,0,0-.1-.1-.2-.2,0,0,0,0,0,0-2.9-2.9-7.7-2.9-10.7,0l-2.3,2.3c-.2.2-.4.5-.6.7s-.7.5-1.1.4l-2.3-.5c-.5-.1-.9-.6-.9-1.1v-25.5c0-.8.8-1.3,1.5-1,3.4,1.2,6.1,2.1,7.9,2.8,1.9.6,4,.5,5.8-.4l10.8-5.6c3.2-1.7,7-1.5,10,.5h0c.7.4.7,1.5,0,1.9l-8.6,4.9c-3.9,2.2-5.2,7.2-3.1,11,1.5,2.7,4.2,4.2,7.1,4.2s2.5-.3,3.7-.9l6.3-3.3c2.5-1.3,5.6-.8,7.6,1.2l14.3,14.3c.8.8,1.2,1.8,1.2,2.8Z"/>
        <path class="cls-2" d="M41.8,75.7l-2.2,2.2c-.8.8-1.8,1.2-2.8,1.2s-2-.4-2.8-1.2c-1.5-1.5-1.5-3.8-.2-5.3s0,0,0,0c-.7.6-1.6.9-2.5.9s-2-.4-2.8-1.2c-1.1-1.1-1.4-2.7-.9-4.1s-.1-.6-.4-.5-.8.2-1.2.2c-1,0-2-.4-2.8-1.2-1.5-1.5-1.5-3.8-.2-5.3s0,0,0,0c-.7.6-1.6.9-2.5.9s-2.2-.4-3-1.3c-1.4-1.6-1.2-4,.3-5.5l2.2-2.2c1.5-1.5,4.1-1.5,5.6,0h0s0,0,0,0c1.4,1.5,1.5,3.7.2,5.3s0,0,0,0c1.6-1.3,3.8-1.2,5.3.3,0,0,0,0,0,0,0,0,0,0,0,0,1.3,1.3,1.5,3.4.5,4.9s0,0,0,0c1.5-.9,3.5-.7,4.8.6,1.5,1.5,1.5,3.8.2,5.3s0,0,0,0c1.7-1.4,4.2-1.2,5.6.6s1.1,4-.4,5.4Z"/>
        <path class="cls-2" d="M37.4,39h0c1.2,2.1,3.8,2.9,6,1.8l11.2-5.7c1.8-.9,4-.6,5.4.8l16.2,15.4c2.2,2.1,5.4,3.1,8.4,2.5l5.4-1.1v-24.5l-11.2,2.5c-2,.4-4.1,0-5.7-1.4l-8.8-7.3c-1.5-1.2-3.6-1.4-5.2-.5l-19.9,11.3c-2.2,1.2-2.9,4-1.7,6.1Z"/>
      </g>
      <g>
        <path class="cls-1" d="M74.4,59.1c0,1-.4,2-1.2,2.8-.9.9-2.1,1.3-3.3,1.1s-1.3.5-1.2,1.2,0,.3,0,.4c0,1-.4,2-1.2,2.8-1.6,1.5-4.1,1.5-5.6,0l-1-1c.8.8,1.2,1.8,1.2,2.8s-.4,2-1.2,2.8c-1.6,1.5-4.1,1.5-5.6,0l-.5-.5c.3.5.4,1.1.4,1.7,0,1-.4,2-1.2,2.8-1.6,1.5-4.1,1.5-5.6,0l-1.6-1.6c-.2-.2-.4-.6-.3-.9.3-2.2-.5-4.5-2.1-6.2-.9-.9-1.9-1.5-3-1.9s-.6-.4-.7-.7c-.4-1.1-1-2.2-1.8-3.1-.8-.8-1.8-1.4-2.9-1.8s-.6-.4-.7-.7c-.3-1.1-1-2.2-1.8-3,0,0,0,0,0,0,0,0,0,0,0,0,0,0,0,0,0,0-.9-.9-1.9-1.5-3-1.8s-.6-.4-.7-.7c-.3-1.1-.9-2.1-1.7-2.9,0,0-.1-.1-.2-.2,0,0,0,0,0,0-2.9-2.9-7.7-2.9-10.7,0l-2.3,2.3c-.2.2-.4.5-.6.7s-.7.5-1.1.4l-2.3-.5c-.5-.1-.9-.6-.9-1.1v-25.5c0-.8.8-1.3,1.5-1,3.4,1.2,6.1,2.1,7.9,2.8,1.9.6,4,.5,5.8-.4l10.8-5.6c3.2-1.7,7-1.5,10,.5h0c.7.4.7,1.5,0,1.9l-8.6,4.9c-3.9,2.2-5.2,7.2-3.1,11,1.5,2.7,4.2,4.2,7.1,4.2s2.5-.3,3.7-.9l6.3-3.3c2.5-1.3,5.6-.8,7.6,1.2l14.3,14.3c.8.8,1.2,1.8,1.2,2.8Z"/>
        <path class="cls-1" d="M41.8,75.7l-2.2,2.2c-.8.8-1.8,1.2-2.8,1.2s-2-.4-2.8-1.2c-1.5-1.5-1.5-3.8-.2-5.3s0,0,0,0c-.7.6-1.6.9-2.5.9s-2-.4-2.8-1.2c-1.1-1.1-1.4-2.7-.9-4.1s-.1-.6-.4-.5-.8.2-1.2.2c-1,0-2-.4-2.8-1.2-1.5-1.5-1.5-3.8-.2-5.3s0,0,0,0c-.7.6-1.6.9-2.5.9s-2.2-.4-3-1.3c-1.4-1.6-1.2-4,.3-5.5l2.2-2.2c1.5-1.5,4.1-1.5,5.6,0h0s0,0,0,0c1.4,1.5,1.5,3.7.2,5.3s0,0,0,0c1.6-1.3,3.8-1.2,5.3.3,0,0,0,0,0,0,0,0,0,0,0,0,1.3,1.3,1.5,3.4.5,4.9s0,0,0,0c1.5-.9,3.5-.7,4.8.6,1.5,1.5,1.5,3.8.2,5.3s0,0,0,0c1.7-1.4,4.2-1.2,5.6.6s1.1,4-.4,5.4Z"/>
        <path class="cls-1" d="M37.4,39h0c1.2,2.1,3.8,2.9,6,1.8l11.2-5.7c1.8-.9,4-.6,5.4.8l16.2,15.4c2.2,2.1,5.4,3.1,8.4,2.5l5.4-1.1v-24.5l-11.2,2.5c-2,.4-4.1,0-5.7-1.4l-8.8-7.3c-1.5-1.2-3.6-1.4-5.2-.5l-19.9,11.3c-2.2,1.2-2.9,4-1.7,6.1Z"/>
      </g>
    </g>
  </g>
  <g id="Ebene_5" data-name="Ebene 5" class="cls-4">
    <path class="cls-1" d="M83.9,72.2h-3.8v-2.9c0-1-.8-1.9-1.9-1.9h-4.1v-23.1h5.9c1,0,1.9-.8,1.9-1.9v-3.6c0-.7-.3-1.3-.9-1.6l-29.9-18c-.6-.4-1.3-.4-1.9,0l-30,18c-.6.3-.9,1-.9,1.6v3.6c0,1,.8,1.9,1.9,1.9h5.9v23.1h-4.1c-1,0-1.9.8-1.9,1.9v2.9h-3.8c-1,0-1.9.8-1.9,1.9v5c0,1,.8,1.9,1.9,1.9h67.7c1,0,1.9-.8,1.9-1.9v-5c0-1-.8-1.9-1.9-1.9ZM44.1,67.5h-6.2v-23.1h6.2v23.1ZM62.2,67.5h-6.2v-23.1h6.2v23.1Z"/>
  </g>
  <g id="Ebene_4" data-name="Ebene 4" class="cls-4">
    <g>
      <g>
        <g>
          <path class="cls-2" d="M81.7,47.7h-2.4c-1.1-14.4-12.6-25.9-27.1-27.1v-2.4c0-1.3-1-2.3-2.3-2.3s-2.3,1-2.3,2.3v2.4c-14.4,1.1-26,12.6-27.1,27.1h-2.4c-1.3,0-2.3,1-2.3,2.3s1,2.3,2.3,2.3h2.4c1.1,14.4,12.6,25.9,27.1,27.1v2.4c0,1.3,1,2.3,2.3,2.3s2.3-1,2.3-2.3v-2.4c14.4-1.1,25.9-12.6,27.1-27.1h2.4c1.3,0,2.3-1,2.3-2.3s-1-2.3-2.3-2.3ZM72.6,52.3h2.1c-1.1,11.9-10.6,21.4-22.5,22.5v-2.1c0-1.3-1-2.3-2.3-2.3s-2.3,1-2.3,2.3v2.1c-11.9-1.1-21.4-10.6-22.5-22.5h2.1c1.3,0,2.3-1,2.3-2.3s-1-2.3-2.3-2.3h-2.1c1.1-11.9,10.6-21.4,22.5-22.5v2.1c0,1.3,1,2.3,2.3,2.3s2.3-1,2.3-2.3v-2.1c11.9,1.1,21.4,10.6,22.5,22.5h-2.1c-1.3,0-2.3,1-2.3,2.3s1,2.3,2.3,2.3Z"/>
          <path class="cls-2" d="M20.6,31.9c1.3,0,2.3-1,2.3-2.3v-5.7c0-.6.5-1.1,1.1-1.1h5.7c1.3,0,2.3-1,2.3-2.3s-1-2.3-2.3-2.3h-5.7c-3.1,0-5.7,2.5-5.7,5.7v5.7c0,1.3,1,2.3,2.3,2.3Z"/>
          <path class="cls-2" d="M70.4,22.8h5.7c.6,0,1.1.5,1.1,1.1v5.7c0,1.3,1,2.3,2.3,2.3s2.3-1,2.3-2.3v-5.7c0-3.1-2.5-5.7-5.7-5.7h-5.7c-1.3,0-2.3,1-2.3,2.3s1,2.3,2.3,2.3Z"/>
          <path class="cls-2" d="M29.6,77.2h-5.7c-.6,0-1.1-.5-1.1-1.1v-5.7c0-1.3-1-2.3-2.3-2.3s-2.3,1-2.3,2.3v5.7c0,3.1,2.5,5.7,5.7,5.7h5.7c1.3,0,2.3-1,2.3-2.3s-1-2.3-2.3-2.3Z"/>
          <path class="cls-2" d="M79.4,68.1c-1.3,0-2.3,1-2.3,2.3v5.7c0,.6-.5,1.1-1.1,1.1h-5.7c-1.3,0-2.3,1-2.3,2.3s1,2.3,2.3,2.3h5.7c3.1,0,5.7-2.5,5.7-5.7v-5.7c0-1.3-1-2.3-2.3-2.3Z"/>
        </g>
        <g>
          <circle class="cls-2" cx="50" cy="42.1" r="6.8"/>
          <path class="cls-2" d="M58.1,50c-2.1,2.1-4.9,3.4-8.1,3.4s-6-1.3-8.1-3.4c-2,2-3.3,4.8-3.3,7.9v1.1c0,3.1,2.5,5.7,5.7,5.7h11.3c3.1,0,5.7-2.5,5.7-5.7v-1.1c0-3.1-1.2-5.9-3.3-7.9Z"/>
        </g>
      </g>
      <g>
        <g>
          <path class="cls-1" d="M81.7,47.7h-2.4c-1.1-14.4-12.6-25.9-27.1-27.1v-2.4c0-1.3-1-2.3-2.3-2.3s-2.3,1-2.3,2.3v2.4c-14.4,1.1-26,12.6-27.1,27.1h-2.4c-1.3,0-2.3,1-2.3,2.3s1,2.3,2.3,2.3h2.4c1.1,14.4,12.6,25.9,27.1,27.1v2.4c0,1.3,1,2.3,2.3,2.3s2.3-1,2.3-2.3v-2.4c14.4-1.1,25.9-12.6,27.1-27.1h2.4c1.3,0,2.3-1,2.3-2.3s-1-2.3-2.3-2.3ZM72.6,52.3h2.1c-1.1,11.9-10.6,21.4-22.5,22.5v-2.1c0-1.3-1-2.3-2.3-2.3s-2.3,1-2.3,2.3v2.1c-11.9-1.1-21.4-10.6-22.5-22.5h2.1c1.3,0,2.3-1,2.3-2.3s-1-2.3-2.3-2.3h-2.1c1.1-11.9,10.6-21.4,22.5-22.5v2.1c0,1.3,1,2.3,2.3,2.3s2.3-1,2.3-2.3v-2.1c11.9,1.1,21.4,10.6,22.5,22.5h-2.1c-1.3,0-2.3,1-2.3,2.3s1,2.3,2.3,2.3Z"/>
          <path class="cls-1" d="M20.6,31.9c1.3,0,2.3-1,2.3-2.3v-5.7c0-.6.5-1.1,1.1-1.1h5.7c1.3,0,2.3-1,2.3-2.3s-1-2.3-2.3-2.3h-5.7c-3.1,0-5.7,2.5-5.7,5.7v5.7c0,1.3,1,2.3,2.3,2.3Z"/>
          <path class="cls-1" d="M70.4,22.8h5.7c.6,0,1.1.5,1.1,1.1v5.7c0,1.3,1,2.3,2.3,2.3s2.3-1,2.3-2.3v-5.7c0-3.1-2.5-5.7-5.7-5.7h-5.7c-1.3,0-2.3,1-2.3,2.3s1,2.3,2.3,2.3Z"/>
          <path class="cls-1" d="M29.6,77.2h-5.7c-.6,0-1.1-.5-1.1-1.1v-5.7c0-1.3-1-2.3-2.3-2.3s-2.3,1-2.3,2.3v5.7c0,3.1,2.5,5.7,5.7,5.7h5.7c1.3,0,2.3-1,2.3-2.3s-1-2.3-2.3-2.3Z"/>
          <path class="cls-1" d="M79.4,68.1c-1.3,0-2.3,1-2.3,2.3v5.7c0,.6-.5,1.1-1.1,1.1h-5.7c-1.3,0-2.3,1-2.3,2.3s1,2.3,2.3,2.3h5.7c3.1,0,5.7-2.5,5.7-5.7v-5.7c0-1.3-1-2.3-2.3-2.3Z"/>
        </g>
        <g>
          <circle class="cls-1" cx="50" cy="42.1" r="6.8"/>
          <path class="cls-1" d="M58.1,50c-2.1,2.1-4.9,3.4-8.1,3.4s-6-1.3-8.1-3.4c-2,2-3.3,4.8-3.3,7.9v1.1c0,3.1,2.5,5.7,5.7,5.7h11.3c3.1,0,5.7-2.5,5.7-5.7v-1.1c0-3.1-1.2-5.9-3.3-7.9Z"/>
        </g>
      </g>
    </g>
  </g>
  <g id="Ebene_3" data-name="Ebene 3" class="cls-4">
    <g>
      <g>
        <g>
          <path class="cls-1" d="M69.2,60.2h-2.3c-1.3,0-2.3,1-2.3,2.3s1,2.3,2.3,2.3h2.3c1.3,0,2.3-1,2.3-2.3s-1-2.3-2.3-2.3Z"/>
          <path class="cls-1" d="M33,60.2h-2.3c-1.3,0-2.3,1-2.3,2.3s1,2.3,2.3,2.3h2.3c1.3,0,2.3-1,2.3-2.3s-1-2.3-2.3-2.3Z"/>
          <path class="cls-1" d="M68.1,29.6c-1.3,0-2.3,1-2.3,2.3s1,2.3,2.3,2.3h2.3c1.3,0,2.3-1,2.3-2.3s-1-2.3-2.3-2.3h-2.3Z"/>
          <path class="cls-1" d="M67,24.1c.4,0,.8-.1,1.2-.3l2-1.2c1.1-.7,1.4-2.1.7-3.1s-2.1-1.4-3.1-.7l-2,1.2c-1.1.7-1.4,2.1-.7,3.1.4.7,1.2,1.1,1.9,1.1Z"/>
          <path class="cls-1" d="M29.6,34.1h2.3c1.3,0,2.3-1,2.3-2.3s-1-2.3-2.3-2.3h-2.3c-1.3,0-2.3,1-2.3,2.3s1,2.3,2.3,2.3Z"/>
          <path class="cls-1" d="M29.8,22.5l2,1.2c.4.2.8.3,1.2.3.8,0,1.5-.4,1.9-1.1.7-1.1.3-2.5-.7-3.1l-2-1.2c-1.1-.7-2.5-.4-3.1.7-.7,1.1-.3,2.5.7,3.1Z"/>
          <path class="cls-2" d="M81.7,40.9h-18.6c-.3-2.4-1.2-4.6-2.7-6.5-.3-.4-.7-.8-1-1.2-1,1-2.1,1.8-3.3,2.5-1.8,1-3.9,1.5-6.1,1.5s-4.3-.5-6.1-1.5c-1.2-.6-2.4-1.5-3.3-2.5-.4.4-.7.8-1.1,1.3-1.4,1.8-2.3,4-2.6,6.4h-18.6c-1.3,0-2.3,1-2.3,2.3v38.5c0,1.3,1,2.3,2.3,2.3h63.4c1.3,0,2.3-1,2.3-2.3v-38.5c0-1.3-1-2.3-2.3-2.3ZM20.6,45.5h6.5c-.8,3.2-3.3,5.6-6.5,6.5v-6.5ZM20.6,79.4v-6.5c3.2.8,5.6,3.3,6.5,6.5h-6.5ZM79.4,79.4h-6.5c.8-3.2,3.3-5.6,6.5-6.5v6.5ZM79.4,68.3c-5.7,1-10.2,5.4-11.1,11.1H31.7c-1-5.7-5.4-10.2-11.1-11.1v-11.7c5.7-1,10.2-5.4,11.1-11.1h36.7c1,5.7,5.4,10.2,11.1,11.1v11.7ZM79.4,51.9c-3.2-.8-5.7-3.3-6.5-6.5h6.5v6.5Z"/>
          <circle class="cls-2" cx="50" cy="24" r="8"/>
        </g>
        <path class="cls-1" d="M50,51.1c-6.2,0-11.3,5.1-11.3,11.3s5.1,11.3,11.3,11.3,11.3-5.1,11.3-11.3-5.1-11.3-11.3-11.3Z"/>
      </g>
      <g>
        <g>
          <path class="cls-1" d="M69.2,60.2h-2.3c-1.3,0-2.3,1-2.3,2.3s1,2.3,2.3,2.3h2.3c1.3,0,2.3-1,2.3-2.3s-1-2.3-2.3-2.3Z"/>
          <path class="cls-1" d="M33,60.2h-2.3c-1.3,0-2.3,1-2.3,2.3s1,2.3,2.3,2.3h2.3c1.3,0,2.3-1,2.3-2.3s-1-2.3-2.3-2.3Z"/>
          <path class="cls-1" d="M68.1,29.6c-1.3,0-2.3,1-2.3,2.3s1,2.3,2.3,2.3h2.3c1.3,0,2.3-1,2.3-2.3s-1-2.3-2.3-2.3h-2.3Z"/>
          <path class="cls-1" d="M67,24.1c.4,0,.8-.1,1.2-.3l2-1.2c1.1-.7,1.4-2.1.7-3.1s-2.1-1.4-3.1-.7l-2,1.2c-1.1.7-1.4,2.1-.7,3.1.4.7,1.2,1.1,1.9,1.1Z"/>
          <path class="cls-1" d="M29.6,34.1h2.3c1.3,0,2.3-1,2.3-2.3s-1-2.3-2.3-2.3h-2.3c-1.3,0-2.3,1-2.3,2.3s1,2.3,2.3,2.3Z"/>
          <path class="cls-1" d="M29.8,22.5l2,1.2c.4.2.8.3,1.2.3.8,0,1.5-.4,1.9-1.1.7-1.1.3-2.5-.7-3.1l-2-1.2c-1.1-.7-2.5-.4-3.1.7-.7,1.1-.3,2.5.7,3.1Z"/>
          <path class="cls-1" d="M81.7,40.9h-18.6c-.3-2.4-1.2-4.6-2.7-6.5-.3-.4-.7-.8-1-1.2-1,1-2.1,1.8-3.3,2.5-1.8,1-3.9,1.5-6.1,1.5s-4.3-.5-6.1-1.5c-1.2-.6-2.4-1.5-3.3-2.5-.4.4-.7.8-1.1,1.3-1.4,1.8-2.3,4-2.6,6.4h-18.6c-1.3,0-2.3,1-2.3,2.3v38.5c0,1.3,1,2.3,2.3,2.3h63.4c1.3,0,2.3-1,2.3-2.3v-38.5c0-1.3-1-2.3-2.3-2.3ZM20.6,45.5h6.5c-.8,3.2-3.3,5.6-6.5,6.5v-6.5ZM20.6,79.4v-6.5c3.2.8,5.6,3.3,6.5,6.5h-6.5ZM79.4,79.4h-6.5c.8-3.2,3.3-5.6,6.5-6.5v6.5ZM79.4,68.3c-5.7,1-10.2,5.4-11.1,11.1H31.7c-1-5.7-5.4-10.2-11.1-11.1v-11.7c5.7-1,10.2-5.4,11.1-11.1h36.7c1,5.7,5.4,10.2,11.1,11.1v11.7ZM79.4,51.9c-3.2-.8-5.7-3.3-6.5-6.5h6.5v6.5Z"/>
          <circle class="cls-1" cx="50" cy="24" r="8"/>
        </g>
        <path class="cls-1" d="M50,51.1c-6.2,0-11.3,5.1-11.3,11.3s5.1,11.3,11.3,11.3,11.3-5.1,11.3-11.3-5.1-11.3-11.3-11.3Z"/>
      </g>
    </g>
  </g>
  <g id="Ebene_2" data-name="Ebene 2" class="cls-4">
    <g>
      <g>
        <path class="cls-2" d="M72.2,35.2l4.2-5.6c.9-1.2.7-2.9-.5-3.8-1.2-.9-2.9-.7-3.8.5l-3.8,5.1c-4.3-3.5-9.7-5.8-15.6-6.3v-3.3h4.7c1.5,0,2.7-1.2,2.7-2.7s-1.2-2.7-2.7-2.7h-14.7c-1.5,0-2.7,1.2-2.7,2.7s1.2,2.7,2.7,2.7h4.7v3.3c-14.9,1.4-26.6,13.9-26.6,29.2s13.1,29.3,29.3,29.3,29.3-13.2,29.3-29.3-2.7-14-7.1-19.1ZM50,78.2c-13.2,0-23.9-10.7-23.9-23.9s10.7-23.9,23.9-23.9,23.9,10.7,23.9,23.9-10.7,23.9-23.9,23.9Z"/>
        <g>
          <circle class="cls-2" cx="50" cy="43.7" r="8"/>
          <path class="cls-2" d="M59.4,52.9c-2.4,2.4-5.7,4-9.4,4s-7-1.5-9.4-4c-2.4,2.4-3.8,5.7-3.8,9.3v1.3c0,3.7,3,6.6,6.6,6.6h13.3c3.7,0,6.6-3,6.6-6.6v-1.3c0-3.6-1.5-6.9-3.8-9.3Z"/>
        </g>
      </g>
      <g>
        <path class="cls-1" d="M72.2,35.2l4.2-5.6c.9-1.2.7-2.9-.5-3.8-1.2-.9-2.9-.7-3.8.5l-3.8,5.1c-4.3-3.5-9.7-5.8-15.6-6.3v-3.3h4.7c1.5,0,2.7-1.2,2.7-2.7s-1.2-2.7-2.7-2.7h-14.7c-1.5,0-2.7,1.2-2.7,2.7s1.2,2.7,2.7,2.7h4.7v3.3c-14.9,1.4-26.6,13.9-26.6,29.2s13.1,29.3,29.3,29.3,29.3-13.2,29.3-29.3-2.7-14-7.1-19.1ZM50,78.2c-13.2,0-23.9-10.7-23.9-23.9s10.7-23.9,23.9-23.9,23.9,10.7,23.9,23.9-10.7,23.9-23.9,23.9Z"/>
        <g>
          <circle class="cls-1" cx="50" cy="43.7" r="8"/>
          <path class="cls-1" d="M59.4,52.9c-2.4,2.4-5.7,4-9.4,4s-7-1.5-9.4-4c-2.4,2.4-3.8,5.7-3.8,9.3v1.3c0,3.7,3,6.6,6.6,6.6h13.3c3.7,0,6.6-3,6.6-6.6v-1.3c0-3.6-1.5-6.9-3.8-9.3Z"/>
        </g>
      </g>
    </g>
  </g>
</svg>